<svg width="151" height="164" viewBox="0 0 151 164" fill="none" xmlns="http://www.w3.org/2000/svg">
<path d="M112.844 65.6118C111.176 64.3607 110.412 64.5693 108.674 62.5536C106.937 60.538 108.257 58.8004 107.562 57.4103C105.407 53.3096 100.403 49.6954 100.403 49.6954C100.403 49.6954 102.975 54.3522 101.098 57.5493C99.2216 60.816 100.264 63.2487 101.168 64.0132C103.878 66.3069 104.226 67.6969 104.365 69.087C104.504 70.5466 103.6 73.4658 100.403 73.8133C97.206 74.1608 95.4684 71.3111 95.5379 69.4345C95.6074 67.7664 95.5379 68.1835 97.345 63.8742C98.3876 60.538 94.9123 61.9976 93.7308 59.9125C92.5492 57.8274 96.9975 52.4755 96.9975 52.4755C96.9975 52.4755 91.0201 55.1862 89.8386 59.565C88.7265 63.9437 89.8386 66.0983 90.4641 68.1835C91.0897 70.2686 90.1861 72.9097 87.6144 73.6743C85.0428 74.3693 83.1662 73.0487 82.1931 71.4502C81.2896 69.8516 81.2896 67.3494 81.9151 64.9168C82.5406 62.4841 86.1548 61.9281 86.7804 59.2869C87.4059 56.6458 85.1818 53.6571 87.0584 52.3365C92.1322 48.6528 89.5605 43.7875 89.5605 43.7875C89.5605 43.7875 89.213 44.7606 89.2825 45.9422C89.2825 47.1237 88.518 47.9578 88.518 47.9578C88.518 47.9578 87.0584 49.5564 85.0428 48.5138C83.5832 47.7493 83.5137 46.0812 83.5137 46.0812C83.5137 46.0812 83.3052 43.718 84.0697 42.189C85.1123 39.8953 86.0853 39.4783 86.0853 39.4783C86.0853 39.4783 80.247 41.3549 81.0115 47.6798C81.2201 49.6259 86.5024 55.8117 81.9151 57.5493C77.8839 59.0089 76.4938 48.6528 76.4938 48.6528C76.4938 48.6528 75.3122 50.9465 76.0072 57.0628C76.4938 61.3026 78.4399 61.9281 78.1619 67.3494C78.0924 68.948 77.7449 70.6161 76.7718 71.7977C74.9647 73.9523 73.2966 72.7012 73.2966 72.7012C73.2966 72.7012 71.42 71.5892 72.6016 69.365C73.2966 68.114 73.6441 66.7934 73.7136 65.8898C74.2697 61.1636 68.9178 58.9394 70.7944 53.7961C74.0611 44.8996 59.4653 36.7676 59.4653 36.7676C59.4653 36.7676 68.0838 45.4556 65.4427 50.9465C63.01 55.9508 60.7859 60.4685 63.2185 66.0983C65.6512 71.7977 66.5547 75.3424 63.7051 79.2346C60.9944 82.8488 57.5192 80.5552 57.5192 80.5552C57.5192 80.5552 53.905 78.1225 56.4071 74.2998C57.5887 72.7012 58.8398 70.0601 58.7703 68.392C58.7703 65.6118 55.8511 64.3607 55.8511 64.3607C55.8511 64.3607 57.1022 66.1678 56.4071 68.8785C56.0596 69.9906 54.9476 71.0331 53.2795 70.5466C52.2369 70.0601 51.1248 69.0175 51.8894 67.0714C53.6965 62.6926 59.8128 56.6458 60.9249 53.5876C61.4114 52.267 61.6894 48.9308 60.8554 46.9152C59.5348 43.857 56.6156 42.1194 56.6156 42.1194C56.6156 42.1194 57.8667 45.1081 57.3107 47.7493C56.8242 49.9734 54.9476 51.9195 51.5419 51.016C44.661 48.8613 51.8198 36.9761 53.0709 33.64C53.0709 33.64 43.6184 36.2116 41.2552 43.023C38.8921 49.8344 45.0085 56.4373 46.051 57.7579C47.0241 59.0784 46.8851 60.816 45.217 61.8586C43.4794 62.7621 42.1588 61.7196 41.5333 60.816C40.9077 59.9125 40.8382 56.7153 38.8226 55.3252C36.807 53.9351 31.5247 53.6571 31.5247 53.6571C31.5247 53.6571 36.39 55.1862 36.668 65.6813C36.946 73.3268 33.1928 76.941 35.5559 82.6403C37.9886 88.3396 44.5914 100.85 74.2696 100.642C104.017 100.503 110.898 88.6872 114.721 74.0913C115.486 70.8246 115.764 67.7664 112.844 65.6118ZM83.0967 49.4869C82.7491 48.7918 82.2626 47.8883 82.1931 47.5408C82.1931 47.2627 82.1236 46.9847 82.1236 46.7067C82.3321 47.6798 82.9577 48.9308 84.2782 49.6259C84.9038 49.9734 85.5988 50.1124 86.2939 50.1124C86.7804 50.1124 87.1974 50.0429 87.6144 49.9039C87.2669 50.3209 86.7804 50.7379 86.2243 51.155C85.1123 51.989 84.8343 53.1011 84.9038 54.2131C84.7648 52.6146 83.8612 50.9465 83.0967 49.4869ZM113.331 73.6743C111.732 79.8601 109.3 86.8105 103.322 91.6063C97.1365 96.6106 87.6144 99.1128 74.2002 99.1823C73.9916 99.1823 73.8526 99.1823 73.6441 99.1823C61.2724 99.1823 51.7503 96.9581 45.217 92.5099C40.1432 89.0347 37.9886 85.0729 36.668 81.9453C35.4864 79.0956 35.9729 76.8715 36.7375 73.8828C37.2935 71.5197 37.9886 68.8785 37.8496 65.4033C37.7105 60.4685 36.529 57.2713 35.2779 55.3252C36.3205 55.5337 37.2935 55.8812 37.8496 56.2288C38.8226 56.9238 39.1701 58.3139 39.5176 59.4955C39.7261 60.26 39.9347 60.8855 40.2822 61.4416C41.1857 62.6926 42.4368 63.3877 43.7574 63.3877C44.3829 63.3877 45.078 63.2487 45.7035 62.9012H45.773H45.8425C46.9546 62.2061 47.6496 61.2331 47.8581 60.0515C48.0666 58.9394 47.7886 57.7579 47.0241 56.7848C46.9546 56.6458 46.8156 56.5068 46.607 56.2983C45.078 54.4217 40.5602 48.8613 42.4368 43.301C43.7574 39.4783 47.6496 37.1152 50.4298 35.8641C48.5532 39.8953 46.051 45.5946 47.7191 49.2784C48.3447 50.6684 49.4567 51.6415 51.0553 52.128H51.1248C51.8198 52.3365 52.4454 52.406 53.0709 52.406C55.8511 52.406 58.0057 50.5989 58.5617 47.8188C58.7008 47.1237 58.7703 46.4287 58.7008 45.7337C59.0483 46.2202 59.3263 46.7067 59.6043 47.2627C60.2993 48.9308 60.0908 51.9195 59.6738 52.9621C59.1873 54.2131 57.5192 56.3678 55.9206 58.4529C53.8355 61.1636 51.6808 63.9437 50.6383 66.4459C49.7347 68.67 50.5688 70.7551 52.7234 71.6587H52.7929H52.8624C53.2794 71.7977 53.627 71.8672 54.044 71.8672C55.156 71.8672 56.0596 71.3806 56.6851 70.7551C56.2681 71.6587 55.7816 72.6317 55.2256 73.3268V73.3963V73.4658C52.5844 77.5665 55.3646 80.7637 56.6851 81.5977C56.8241 81.6672 58.2142 82.5708 60.0213 82.5708C61.2724 82.5708 63.149 82.1538 64.7476 79.9991C68.2228 75.3424 66.7632 70.8941 64.4001 65.5423C62.2455 60.538 64.2611 56.4373 66.5547 51.6415L66.6242 51.5025C67.8058 49.0003 67.1802 46.0812 65.9292 43.44C68.6398 46.2202 70.7945 49.7649 69.4739 53.3096C68.2228 56.7848 69.6129 59.1479 70.864 61.1636C71.7675 62.6926 72.5321 64.0132 72.3235 65.6813C72.254 66.5849 71.837 67.6969 71.3505 68.67C70.0994 71.0331 71.3505 72.9792 72.532 73.7438C72.7406 73.8828 73.5051 74.3693 74.4782 74.3693C75.3122 74.3693 76.5633 74.0913 77.7448 72.6317C78.7874 71.3806 79.3434 69.643 79.4824 67.4189C79.6215 63.9437 78.9264 62.2061 78.3009 60.538C77.8839 59.4955 77.4669 58.4529 77.2584 56.9238C77.2584 56.6458 77.1888 56.3678 77.1888 56.0898C78.0924 57.7579 79.3435 59.0784 81.0811 59.0784C81.4981 59.0784 81.9151 59.0089 82.2626 58.8699H82.3321C83.5832 58.3834 84.4173 57.6188 84.7648 56.5763C84.9733 56.0203 85.0428 55.3947 85.0428 54.7692C85.1123 55.2557 85.1818 55.7422 85.3208 56.1593C85.5293 57.1323 85.7378 58.1749 85.5293 59.0089C85.3208 59.9125 84.4868 60.4685 83.5137 61.1636C82.3321 61.9976 81.081 62.9707 80.664 64.6388C80.247 66.4459 79.691 69.7821 81.0811 72.2147C82.1931 74.1608 84.1392 75.3424 86.2243 75.3424C86.7804 75.3424 87.4059 75.2729 87.9619 75.0644C89.4215 74.6473 90.6031 73.7438 91.2981 72.4232C92.0627 71.0331 92.2017 69.365 91.7847 67.8359C91.7152 67.5579 91.5762 67.2799 91.5067 67.0019C90.8811 65.2643 90.3251 63.3877 91.1592 59.982C91.3677 59.1479 91.7847 58.3834 92.3407 57.6884C91.9932 58.8699 92.0627 59.9125 92.4797 60.677C93.2443 61.9976 94.5648 62.4146 95.3989 62.6231C95.6074 62.6926 95.9549 62.7621 96.0939 62.9012C96.0939 62.9707 96.0939 63.1792 95.9549 63.5267C95.6769 64.1522 95.4684 64.7083 95.2599 65.1948C94.2173 67.6274 94.1478 67.8359 94.0783 69.365V69.504C94.0783 70.9636 94.7038 72.4927 95.8159 73.6048C96.8585 74.7168 98.2485 75.2729 99.7776 75.2729C99.9861 75.2729 100.195 75.2729 100.403 75.2034C102.002 75.0644 103.322 74.2998 104.295 73.1182C105.407 71.7282 105.685 69.9906 105.546 68.948C105.338 67.2799 104.921 65.6118 101.863 62.9707C101.585 62.7621 100.542 61.0245 102.141 58.2444C102.975 56.8543 103.114 55.2557 102.905 53.7961C104.087 54.9777 105.407 56.5068 106.172 58.0359C106.311 58.2444 106.242 58.6614 106.242 59.1479C106.172 60.1905 106.103 61.7891 107.493 63.3877C108.744 64.8473 109.647 65.3338 110.481 65.7508C110.898 65.9593 111.315 66.1678 111.871 66.5849C114.165 68.3225 114.095 70.5466 113.331 73.6743Z" fill="#97A1B7"/>
<path d="M32.0112 82.0843C37.0155 97.3751 53.9745 108.635 74.0612 108.635C94.1478 108.635 111.037 97.3751 116.111 82.0843H32.0112V82.0843Z" fill="#97A1B7"/>
<path d="M150.099 40.1038C150.099 38.5747 148.222 37.2542 146.693 39.6173C144.399 43.162 141.48 53.3096 141.063 61.0941C140.716 67.2799 142.036 73.0487 146.067 74.3693C145.928 86.046 145.581 103.422 145.442 108.982C145.442 109.886 146.137 110.581 147.041 110.581H148.987C149.89 110.581 150.585 109.886 150.585 108.982C150.377 103.492 150.099 86.046 149.96 74.3693C149.751 69.9211 150.099 41.2854 150.099 40.1038Z" fill="#97A1B7"/>
<path d="M11.2296 38.5052C11.2296 38.2272 10.743 38.2272 10.743 38.5052L10.604 54.7692C10.604 55.6727 9.49198 55.6727 9.49198 54.7692L8.44942 38.5052C8.44942 38.2272 7.96288 38.2272 7.96288 38.5052L7.47635 54.7692C7.47635 55.1862 7.19834 55.3947 6.92032 55.3947C6.64231 55.3947 6.29477 55.1862 6.29477 54.7692L5.73874 38.5052C5.73874 38.2272 5.25221 38.2272 5.25221 38.5052L4.20965 54.7692C4.20965 55.6727 3.0976 55.6727 3.0976 54.7692L2.95858 38.5052C2.95858 38.2272 2.47205 38.2272 2.47205 38.5052C2.47205 38.5052 1.08199 52.406 0.803974 54.7692C0.456454 57.6884 0.386916 60.538 1.63799 63.2487C2.33303 64.7083 3.44511 65.9593 5.0437 66.7934C4.9047 76.2459 4.55719 102.032 4.27918 108.982C4.27918 109.886 4.97421 110.581 5.87776 110.581H7.82387C8.72742 110.581 9.42245 109.886 9.42245 108.982C9.14443 102.032 8.79693 76.2459 8.65792 66.7934C10.2565 65.9593 11.3686 64.7083 12.0636 63.2487C13.3147 60.538 13.1757 57.6884 12.8977 54.7692C12.6196 52.406 11.2296 38.5052 11.2296 38.5052Z" fill="#97A1B7"/>
<path d="M24.7829 20.7817C26.451 20.5037 27.4935 20.9207 28.0495 21.9633L30.4127 26.9676C31.3857 28.9137 30.8297 30.4428 28.8141 31.3463L23.4623 33.918L13.8707 14.1093L18.3885 11.9547C20.7516 10.8426 22.4892 11.4682 23.6708 13.8313L25.4779 17.654C26.0339 18.7661 25.7559 19.8086 24.5743 20.6427L24.7829 20.7817ZM20.6821 21.1987L21.9332 20.5732C22.9757 20.0867 23.2538 19.3916 22.7672 18.4186L21.3077 15.2909C20.8211 14.3178 20.1956 14.0398 19.4311 14.4568L17.8325 15.2214L20.6821 21.1987ZM25.0609 30.3038L27.0765 29.3307C27.7715 28.9832 27.98 28.5662 27.702 27.9406L25.6169 23.5619C25.1304 22.5888 24.4354 22.3803 23.3928 22.9363L21.9332 23.6314L25.0609 30.3038Z" fill="#97A1B7"/>
<path d="M40.6297 26.8286L37.7801 27.6626L32.6368 10.1476C31.9417 7.71495 32.7063 6.18586 34.9304 5.56033L37.0155 4.93479C39.2397 4.23975 40.7688 5.1433 41.4638 7.57594L46.6071 25.091L43.7574 25.925L41.4638 18.2101L38.1971 19.1831L40.6297 26.8286ZM40.8382 15.6384L38.7531 8.6185C38.4751 7.78446 37.9886 7.50644 37.1545 7.71495L36.39 7.92346C35.5559 8.13198 35.2779 8.68801 35.4864 9.52206L37.5715 16.542L40.8382 15.6384Z" fill="#97A1B7"/>
<path d="M50.2908 1.87661L55.9901 1.11207C58.2142 0.834049 59.5348 1.87661 59.8824 4.37876L60.6469 9.73057C60.9249 11.6072 60.5079 12.9278 59.3958 13.5533L62.6625 22.3803L59.8824 22.7278L56.7547 14.1788L55.0171 14.3873L56.1986 23.2144L53.2795 23.6314L50.2908 1.87661ZM54.6696 11.9547L56.6157 11.6767C57.5192 11.5377 57.8667 10.9816 57.7277 9.93908L57.1022 5.2128C56.9632 4.17024 56.4767 3.68372 55.5731 3.82272L53.627 4.10074L54.6696 11.9547Z" fill="#97A1B7"/>
<path d="M75.8683 10.7731C77.4669 11.2597 78.301 12.0937 78.301 13.2753V18.7661C78.301 20.9207 77.1889 22.0328 74.9647 22.0328H69.0569L69.1264 0H74.1307C76.7719 0 78.0229 1.32058 78.0229 4.03123V8.27098C78.0229 9.52205 77.3279 10.2866 75.8683 10.5646V10.7731ZM71.9761 9.31354H73.3661C74.4782 9.31354 75.0343 8.75751 75.0343 7.71495V4.30925C75.0343 3.26669 74.6172 2.71066 73.7137 2.71066H71.9761V9.31354ZM71.9066 19.3916H74.1307C74.8953 19.3916 75.3122 19.1136 75.3122 18.4186V13.5533C75.3122 12.5107 74.7562 11.9547 73.5746 11.9547H71.9761L71.9066 19.3916Z" fill="#97A1B7"/>
<path d="M84.9038 22.6583L87.8925 0.834045L95.1209 1.8071L94.7733 4.44826L90.4641 3.89222L89.5605 10.4951L93.3833 11.0511L93.0357 13.6923L89.213 13.1363L88.24 20.4342L92.5493 20.9902L92.2017 23.6314L84.9038 22.6583Z" fill="#97A1B7"/>
<path d="M108.188 22.2413L107.84 23.6314C107.145 26.064 105.686 26.8981 103.461 26.2725L101.654 25.786C99.3608 25.1605 98.5962 23.6314 99.2218 21.2682L103.114 7.22841C103.809 4.79577 105.269 3.96172 107.493 4.58726L109.3 5.07379C111.593 5.69933 112.358 7.22841 111.732 9.59155L111.107 11.9547L108.257 11.1901L108.883 9.03552C109.091 8.20147 108.813 7.64544 107.979 7.43693L107.423 7.29792C106.659 7.08941 106.172 7.43693 105.964 8.20147L102.21 21.8243C102.002 22.6583 102.21 23.1448 102.975 23.3534L103.67 23.5619C104.435 23.7704 104.921 23.4229 105.13 22.6583L105.477 21.4767L108.188 22.2413Z" fill="#97A1B7"/>
<path d="M130.638 13.2057L123.34 29.4697C122.228 31.9718 120.559 32.8059 118.405 31.8328L116.111 30.7903C113.957 29.8172 113.47 28.0796 114.652 25.508L121.95 9.24402L124.66 10.4256L117.293 26.759C116.876 27.6626 117.084 28.2186 117.849 28.6356L118.961 29.1222C119.656 29.4697 120.281 29.1917 120.629 28.2881L127.996 11.9547L130.638 13.2057Z" fill="#97A1B7"/>
<path d="M127.51 36.6981L139.604 18.2795L145.72 22.3108L144.26 24.5349L140.646 22.1718L136.962 27.7321L140.16 29.8867L138.7 32.1108L135.503 29.9562L131.472 36.0726L135.086 38.4357L133.626 40.6598L127.51 36.6981Z" fill="#97A1B7"/>
<path d="M20.6127 120.033L22.0028 117.74L25.8255 120.033L20.2652 129.208L15.3303 126.219C13.3842 125.038 13.0367 123.37 14.3573 121.285L21.8637 108.843C23.1843 106.689 24.7829 106.202 26.729 107.384L28.4666 108.426C30.6213 109.747 31.0383 111.484 29.6482 113.639L28.3971 115.655L25.895 114.126L26.9375 112.458C27.4936 111.554 27.424 110.859 26.6595 110.442L26.034 110.094C25.2694 109.677 24.6439 109.886 24.0879 110.789L17.1375 122.327C16.5814 123.231 16.6509 123.926 17.4155 124.343L19.1531 125.385L21.9332 120.798L20.6127 120.033Z" fill="#97A1B7"/>
<path d="M30.4128 133.865C28.1886 133.031 27.5631 131.432 28.4667 129.069L33.7489 115.585C34.6525 113.222 36.2511 112.527 38.4057 113.361L41.0469 114.404C43.2015 115.238 43.8965 116.836 42.9235 119.199L37.6412 132.683C36.7376 134.977 35.139 135.741 32.9844 134.838L30.4128 133.865ZM32.0113 131.641L33.4014 132.197C34.0965 132.475 34.6525 132.197 34.9305 131.432L40.0738 118.296C40.4214 117.531 40.1433 116.906 39.3093 116.628L38.0582 116.141C37.2242 115.794 36.6681 116.072 36.3901 116.836L31.2468 129.973C30.9688 130.807 31.2468 131.363 32.0113 131.641Z" fill="#97A1B7"/>
<path d="M46.9547 139.217C44.661 138.661 43.7575 137.201 44.3135 134.768L47.5802 120.659C48.1363 118.226 49.5958 117.253 51.8895 117.74L54.6696 118.365C56.9633 118.921 57.7973 120.381 57.2413 122.814L53.9746 136.923C53.4186 139.356 51.959 140.329 49.6653 139.773L46.9547 139.217ZM48.2753 136.714L49.7348 137.062C50.4994 137.201 50.9859 136.923 51.1249 136.089L54.2526 122.327C54.4611 121.493 54.1136 121.007 53.2796 120.798L51.959 120.52C51.1249 120.311 50.6384 120.659 50.4299 121.493L47.3022 135.255C47.0242 136.019 47.3717 136.575 48.2753 136.714Z" fill="#97A1B7"/>
<path d="M60.5081 141.719L62.5237 119.755L67.5975 120.242C70.3776 120.52 71.5592 122.049 71.3507 124.829L70.0301 139.356C69.8216 141.441 68.5705 142.414 66.2074 142.205L60.5081 141.719ZM63.7053 139.356L65.9294 139.564C66.6939 139.634 67.111 139.356 67.1805 138.661L68.501 124.621C68.5705 123.578 68.223 123.022 67.3194 122.883L65.3039 122.675L63.7053 139.356Z" fill="#97A1B7"/>
<path d="M91.4372 129.347L91.6457 131.988L87.823 132.336L88.6571 142.275L85.7379 142.553L83.8613 120.59L91.1593 119.964L91.3678 122.605L87.0585 123.022L87.6145 129.695L91.4372 129.347Z" fill="#97A1B7"/>
<path d="M102.975 140.259C100.681 140.746 99.2216 139.773 98.7351 137.34L95.7464 123.161C95.2599 120.729 96.094 119.199 98.4571 118.713L101.237 118.157C103.531 117.67 104.921 118.643 105.477 121.146L108.466 135.324C108.952 137.757 108.049 139.217 105.755 139.703L102.975 140.259ZM103.114 137.548L104.573 137.27C105.338 137.131 105.616 136.645 105.477 135.741L102.558 121.91C102.349 121.076 101.863 120.729 101.029 120.937L99.7082 121.215C98.8741 121.424 98.5266 121.91 98.7351 122.744L101.654 136.575C101.793 137.409 102.28 137.687 103.114 137.548Z" fill="#97A1B7"/>
<path d="M119.725 135.741C117.501 136.575 115.972 135.811 115.069 133.448L110.064 119.825C109.161 117.462 109.856 115.863 112.08 115.099L114.721 114.126C116.945 113.292 118.474 114.056 119.308 116.419L124.313 130.042C125.147 132.405 124.521 133.934 122.297 134.768L119.725 135.741ZM119.447 132.961L120.837 132.475C121.532 132.197 121.81 131.641 121.463 130.876L116.598 117.601C116.32 116.767 115.764 116.558 114.93 116.836L113.609 117.323C112.775 117.601 112.566 118.157 112.844 118.991L117.71 132.266C118.057 133.031 118.613 133.309 119.447 132.961Z" fill="#97A1B7"/>
<path d="M132.862 130.181L121.88 111.067L126.328 108.496C128.691 107.106 130.638 107.662 132.028 110.094L139.326 122.744C140.368 124.621 139.882 126.08 137.866 127.262L132.862 130.181ZM134.113 126.428L136.059 125.316C136.754 124.899 136.893 124.482 136.615 123.856L129.595 111.623C129.039 110.72 128.413 110.442 127.649 110.928L125.842 111.971L134.113 126.428Z" fill="#97A1B7"/>
<path d="M27.0764 145.889C27.7715 146.515 27.9799 147.21 27.7019 147.835L26.2424 150.685C25.6863 151.797 24.7828 152.075 23.6707 151.519L20.6125 149.99L26.3118 138.591L28.8835 139.912C30.2041 140.607 30.5516 141.649 29.8566 142.97L28.7445 145.124C28.397 145.75 27.841 146.028 27.0764 145.75V145.889ZM22.8366 149.295L23.9487 149.851C24.3658 150.059 24.6438 149.99 24.7828 149.642L26.0339 147.14C26.3119 146.584 26.1729 146.167 25.5473 145.889L24.7133 145.472L22.8366 149.295ZM25.4083 144.151L26.1033 144.499C26.6594 144.777 27.1459 144.638 27.3544 144.082L28.258 142.275C28.536 141.719 28.4665 141.371 27.98 141.093L27.0764 140.607L25.4083 144.151Z" fill="#97A1B7"/>
<path d="M30.4127 154.507L28.8141 153.882L32.7063 144.082C33.2623 142.761 34.1659 142.275 35.417 142.831L36.5985 143.317C37.8496 143.804 38.1971 144.777 37.7106 146.097L33.8184 155.898L32.2198 155.272L33.9574 150.963L32.1503 150.268L30.4127 154.507ZM34.5134 149.434L36.0425 145.472C36.251 144.985 36.112 144.707 35.6255 144.499L35.2085 144.36C34.7219 144.151 34.4439 144.29 34.2354 144.777L32.7063 148.739L34.5134 149.434Z" fill="#97A1B7"/>
<path d="M41.1858 144.985L44.3829 145.958C45.634 146.306 46.0511 147.21 45.6341 148.6L44.7305 151.588C44.3829 152.631 43.8964 153.256 43.1319 153.326L42.7149 158.747L41.1858 158.261L41.6028 153.048L40.6298 152.77L39.1007 157.705L37.5021 157.218L41.1858 144.985ZM41.0468 151.31L42.0893 151.658C42.5759 151.797 42.9234 151.588 43.0624 151.032L43.8965 148.391C44.105 147.835 43.8964 147.418 43.4099 147.279L42.3674 146.932L41.0468 151.31Z" fill="#97A1B7"/>
<path d="M52.5149 160.971L50.8468 160.693L52.7929 150.337C53.0709 148.878 53.8355 148.322 55.2255 148.53L56.4766 148.739C57.7972 149.017 58.3532 149.851 58.0752 151.241L56.1291 161.597L54.461 161.319L55.295 156.732L53.3489 156.384L52.5149 160.971ZM55.5731 155.272L56.3376 151.102C56.4071 150.615 56.1986 150.337 55.7121 150.268L55.2255 150.198C54.739 150.129 54.461 150.337 54.3915 150.824L53.627 154.994L55.5731 155.272Z" fill="#97A1B7"/>
<path d="M64.1221 156.106L64.8172 149.99L66.4853 150.198L65.0952 162.848L63.4271 162.639L63.7051 160.137L62.5236 154.16L61.62 162.431L59.9519 162.222L61.342 149.573L63.0101 149.781L64.1221 156.106Z" fill="#97A1B7"/>
<path d="M68.9874 163.126L69.5435 150.407L72.5321 150.546C74.1307 150.615 74.8953 151.449 74.8258 153.117L74.4783 161.527C74.4088 162.778 73.7137 163.334 72.3931 163.265L68.9874 163.126ZM70.725 161.666L71.9761 161.736C72.3931 161.736 72.6711 161.597 72.6711 161.18L73.0187 153.048C73.0187 152.422 72.8101 152.144 72.3236 152.075L71.142 152.005L70.725 161.666Z" fill="#97A1B7"/>
<path d="M87.8924 159.998L87.9619 160.832C88.0314 162.292 87.4059 163.056 86.0853 163.126L84.9733 163.196C83.5832 163.265 82.8882 162.57 82.8187 161.18L82.3321 152.77C82.2626 151.31 82.8882 150.546 84.2087 150.476L85.3208 150.407C86.7109 150.337 87.4059 151.032 87.4754 152.422L87.5449 153.882L85.8768 153.951L85.8073 152.631C85.8073 152.144 85.5293 151.936 84.9733 151.936H84.6257C84.2087 151.936 84.0002 152.214 84.0002 152.7L84.4867 160.832C84.4867 161.319 84.7647 161.597 85.1818 161.527H85.5988C86.0158 161.527 86.2243 161.249 86.2243 160.763L86.1548 160.068L87.8924 159.998Z" fill="#97A1B7"/>
<path d="M93.5918 162.361C92.2017 162.5 91.4371 161.875 91.2981 160.485L90.2556 152.144C90.047 150.685 90.6726 149.92 91.9932 149.712L93.5918 149.503C94.9124 149.364 95.6769 149.99 95.8854 151.38L96.928 159.72C97.1365 161.18 96.5109 161.944 95.1904 162.153L93.5918 162.361ZM93.8003 160.832L94.6343 160.693C95.0514 160.624 95.2599 160.346 95.1904 159.859L94.1478 151.797C94.0783 151.31 93.8003 151.102 93.3138 151.171L92.5492 151.241C92.0627 151.31 91.8542 151.588 91.9237 152.075L92.9662 160.137C93.0357 160.624 93.3138 160.902 93.8003 160.832Z" fill="#97A1B7"/>
<path d="M103.392 153.326L103.67 154.855L101.446 155.272L102.558 160.971L100.89 161.319L98.4572 148.808L102.627 147.974L102.905 149.503L100.403 149.99L101.168 153.812L103.392 153.326Z" fill="#97A1B7"/>
<path d="M110.342 151.658L110.759 153.117L108.605 153.673L110.064 159.234L108.396 159.651L105.199 147.349L109.3 146.306L109.717 147.766L107.284 148.391L108.257 152.144L110.342 151.658Z" fill="#97A1B7"/>
<path d="M115.764 157.635L111.732 145.541L115.764 144.221L116.25 145.68L113.887 146.445L115.138 150.129L117.223 149.434L117.71 150.893L115.625 151.588L116.945 155.62L119.308 154.855L119.795 156.315L115.764 157.635Z" fill="#97A1B7"/>
<path d="M123.061 155.064L118.196 143.317L122.088 141.719L122.644 143.178L120.351 144.151L121.81 147.696L123.896 146.862L124.452 148.322L122.366 149.156L123.965 153.048L126.259 152.075L126.815 153.534L123.061 155.064Z" fill="#97A1B7"/>
</svg>
