<svg width="151" height="142" viewBox="0 0 151 142" fill="none" xmlns="http://www.w3.org/2000/svg">
<path d="M96.3352 97.8941H51.6529L44.8764 90.3412L46.0059 89.3529L52.3588 96.4118H95.5588L100.076 89.6353V9.02354L95.1353 1.68235H52.3588L46.2176 9.02354V79.4706L56.8058 79.2588C57.4411 77.5647 59.5588 71.7059 59.6294 67.4706C59.6999 63.7294 58.4294 59.8471 55.8882 55.8941C55.4647 55.2588 54.9 54.553 54.2647 53.8471C52.6411 51.9412 50.6646 49.6118 50.5235 46.6471C50.3823 42.8353 53.9824 16.2235 54.1235 14.7412C54.1941 13.8235 54.4765 11.0706 56.2412 11.0706C56.5941 11.0706 56.947 11.2118 57.2293 11.4941C58.0764 12.3412 58.0765 14.3882 58.0059 14.8118L56.5235 39.0941C56.5235 40.2941 56.7353 42.553 57.4411 43.2588C57.5823 43.4 57.7235 43.4706 57.7941 43.4706C57.8647 43.4706 58.0058 43.4706 58.147 43.2588C58.8529 42.553 59.1353 40.2941 59.1353 39.0235L60.3352 14.9529C60.3352 14.8824 60.4059 13.6824 60.547 12.4824C60.7588 11 61.1823 9.44705 62.3117 9.44705C63.4412 9.44705 63.7941 10.9294 64.0765 12.6235C64.2882 13.8941 64.2882 15.1647 64.3588 15.2353L65.2058 39.0235C65.2764 41.2118 65.8411 43.6118 66.6176 43.6118C66.6882 43.6118 66.8294 43.6118 66.9 43.4706C67.6059 42.6941 67.8176 40.2235 67.8176 39.0941L66.7588 14.8824C66.7588 14.3177 66.8294 12.3412 67.6059 11.5647C67.8882 11.2823 68.2412 11.1412 68.5941 11.1412C70.2882 11.1412 70.6412 13.9647 70.7118 14.8118C70.8529 16.1529 74.0999 42.7647 74.0999 46.7177C74.0999 50.0353 69.794 54.8353 69.5823 55.0471C69.5117 55.1176 64.7118 59.9882 64.7118 67.4706C64.7118 73.4 66.0529 78.4118 68.7353 82.2235C70.2882 84.4824 73.5352 88.2941 77.347 88.2941C81.2999 88.2941 84.6176 83.6353 85.8176 81.6588C87.3705 79.1882 88.9235 73.8941 88.9235 67.6118C88.9235 61.8941 86.3117 58.153 85.0411 56.3177L84.9 56.1059C84.547 55.5412 83.7705 54.6235 82.8529 53.5647C80.3117 50.5294 78.4764 48.2706 78.2647 46.9294C78.0529 45.8 78.0529 42.0588 78.1235 35.9882C78.1941 32.4588 78.2646 29.7765 78.4058 28.0118C78.6176 25.8235 79.2529 22.3647 80.0999 20.1765C81.5823 16.2941 83.5588 14.1059 85.3235 12.4118C88.5705 9.44706 93.0882 8.17647 93.3 8.17647L94.2176 7.96472V87.0235H92.7353V9.65883C90.9705 10.0824 88.5705 11.2823 86.3823 13.3294C84.6176 14.9529 82.8529 16.9294 81.5117 20.4588C80.6647 22.6471 80.1 26.1059 79.8882 27.8706C79.7471 29.6353 79.6059 32.2471 79.6059 35.7059C79.6059 39.2353 79.5352 45.1647 79.747 46.3647C79.9588 47.353 82.4293 50.3177 84.0529 52.2941C84.9705 53.3529 85.747 54.3412 86.1705 54.9059L86.3117 55.1177C87.6529 57.0941 90.4765 61.1176 90.4765 67.3294C90.4765 73.8941 88.7823 79.5412 87.1588 82.2235C85.4647 84.9765 81.9352 89.5647 77.347 89.5647C72.8293 89.5647 69.2293 85.3294 67.4646 82.8588C64.6411 78.7647 63.1588 73.5412 63.1588 67.2588C63.1588 59.2824 68.0999 54.2 68.4529 53.7765C69.5823 52.5059 72.547 48.7647 72.547 46.5059C72.547 42.6235 69.1588 15.0235 69.1588 14.7412C69.0882 13.8235 68.8059 12.7647 68.5941 12.4824C68.3824 12.8353 68.2412 13.753 68.2412 14.6706L69.3 38.8824C69.3 39.3059 69.3 42.9765 67.9588 44.3882C67.6059 44.8118 67.1117 44.953 66.547 44.953C63.8647 44.953 63.6529 39.9412 63.6529 38.8824L62.8058 15.0941C62.7352 13.6118 62.5235 12.1294 62.3117 11.2824C62.1 12.0588 61.8882 13.4706 61.8176 14.8118L60.6176 38.8118C60.6176 39.3059 60.6176 42.6941 59.2058 44.1059C58.7823 44.5294 58.2882 44.7412 57.7235 44.7412C57.1588 44.7412 56.6647 44.5294 56.2412 44.1059C54.9 42.6941 54.9 39.2353 54.9 38.8824L56.3823 14.5294C56.3823 13.6118 56.2411 12.6235 56.0294 12.3412C55.747 12.6235 55.4646 13.6824 55.4646 14.6V14.6706C55.4646 14.953 51.6529 42.6941 51.8647 46.3647C52.0058 48.8353 53.7 50.8824 55.2529 52.6471C55.8882 53.4235 56.5235 54.1294 57.0176 54.9059C59.7 59.1412 61.1117 63.3059 61.0411 67.3294C60.9705 72.6235 58.0764 79.8235 57.9352 80.1059L57.7235 80.5294L44.5941 80.8118V8.45882L51.5823 0.200012H95.8412L101.418 8.60001V90.0588L96.3352 97.8941Z" fill="#97A1B7"/>
<path d="M72.4059 94.7177C65.9823 94.7177 61.253 92.8118 58.4294 91.1177C55.1824 89.2118 53.6294 87.3059 53.5588 87.2353L54.9 86.1765L54.2647 86.7412L54.9 86.1765C54.9 86.1765 56.3824 87.9412 59.4177 89.7059C62.1706 91.2588 66.7589 93.1647 73.1824 93.0235C85.4648 92.7412 89.5588 87.5176 89.6294 87.4471L90.9706 88.4353C90.7588 88.6471 86.3824 94.3647 73.253 94.7177C72.9706 94.6471 72.6882 94.7177 72.4059 94.7177Z" fill="#97A1B7"/>
<path d="M78.1942 82.2235L77.7707 81.3765C81.3001 79.4706 81.9353 78.2706 81.7942 77.9176C81.5824 77.4235 79.1118 76.8588 72.8295 78.6941C69.9354 79.5412 68.3118 79.4 67.8883 78.4118C66.7589 75.8706 74.8765 69.3765 80.6648 65.7765C83.1353 64.2235 83.8412 63.5177 84.0529 63.2353C83.7 63.1647 82.4294 63.1647 78.6883 64.2235C75.9353 65 72.406 66.1294 68.9471 67.4C66.1942 68.3882 65.5588 68.3177 65.3471 67.8235C65.1353 67.3294 65.4883 66.8353 66.8295 65.7059C67.6765 65 68.9471 64.0824 70.5706 63.0235C73.8883 60.7647 77.8412 58.3647 79.3941 57.4471C80.8059 56.6 81.0883 56.1059 81.0883 55.9647C80.5942 55.6824 77.3471 55.8235 70.5 59C70.0059 59.2118 69.7236 59 69.653 58.8588C69.4412 58.5059 69.653 58.1529 70.0765 57.5176C70.4295 57.0941 70.853 56.5294 71.4883 55.8941C72.6883 54.6235 74.1 53.1412 75.2294 52.1529C77.1353 50.4588 77.5588 49.3294 77.2765 48.8353C77.1353 48.4824 76.5706 48.3412 75.9353 48.4824C75.2294 48.6235 74.2412 48.6941 73.8883 48.0588C73.5354 47.4235 73.8883 46.5765 75.1588 45.0941C75.7235 44.3882 76.0059 44.0353 76.0765 43.8235C75.8648 43.8235 75.5824 43.8235 75.3706 43.8235C75.2295 43.8235 75.1589 43.8235 75.0177 43.8235C74.6648 43.8235 73.7471 43.8235 73.4647 43.1177C73.2529 42.4824 73.7471 41.7059 75.1588 40.4353C75.653 40.0118 75.8647 39.7294 75.9353 39.5882C75.7941 39.5882 75.4412 39.5177 74.6648 39.6588C74.3118 39.7294 73.3941 39.8706 73.1118 39.3059C72.8294 38.6706 73.5353 37.6824 75.2294 36.3412L75.7942 37.0471C75.0177 37.6824 74.3118 38.3882 74.0294 38.8118C74.1 38.8118 74.2412 38.8118 74.453 38.7412C75.7941 38.4588 76.5706 38.6 76.7824 39.1647C77.1353 39.8 76.4295 40.5765 75.7236 41.1412C74.5236 42.2 74.3118 42.6941 74.3118 42.7647C74.3824 42.7647 74.5236 42.8353 75.0177 42.8353C75.1589 42.8353 75.2295 42.8353 75.3706 42.8353C76.2177 42.8353 76.853 42.8353 77.0648 43.3294C77.2765 43.8235 76.9235 44.4588 75.8647 45.6588C74.6647 47.0706 74.6648 47.4941 74.6648 47.5647C74.7353 47.5647 74.9471 47.7059 75.7236 47.5647C76.7824 47.3529 77.7 47.7059 78.0529 48.4824C78.3353 49.1177 78.4765 50.5294 75.7942 52.9294C74.1 54.4118 72.053 56.5294 71.0648 57.8C76.006 55.6118 81.0883 54.2 81.8647 55.6823C82.2177 56.3882 81.5824 57.3059 79.8176 58.3647C72.9706 62.5294 67.8177 65.9882 66.4765 67.3294C66.8295 67.2588 67.5354 67.0471 68.5942 66.6941C72.1942 65.3529 75.9354 64.153 78.8295 63.3765C83.9824 62.0353 84.6177 62.4588 84.9001 62.9529C85.253 63.5882 84.6883 64.4353 81.0883 66.6941C73.1118 71.6353 68.1001 77 68.6648 78.2C68.6648 78.2706 69.0883 78.9765 72.4765 77.9882C74.5942 77.3529 81.653 75.5882 82.5706 77.7765C83.1353 78.7647 81.653 80.3882 78.1942 82.2235Z" fill="#97A1B7"/>
<path d="M4.0765 106.647C5.62944 106.718 7.04117 107.071 8.45293 107.706C9.72352 108.341 10.9235 109.188 11.9823 110.176C12.9706 111.165 13.7471 112.365 14.3824 113.776C14.9471 115.118 15.2294 116.6 15.2294 118.153C15.2294 123.165 12.8294 126.765 7.95885 128.812C8.10002 129.024 8.31175 129.235 8.45293 129.376C8.59411 129.588 8.73534 129.8 8.9471 130.012C9.30004 130.506 9.58236 131 9.79413 131.424L11.2059 134.318C12.4765 136.435 13.9588 137.635 15.5823 137.988V141.094C12.4059 140.106 10.3588 138.765 9.37061 137L8.09999 134.318C7.95881 133.965 7.74708 133.612 7.60591 133.329C7.46473 133.047 7.25291 132.765 7.11174 132.482C6.97056 132.2 6.75883 131.988 6.61765 131.776C6.47648 131.565 6.26475 131.353 6.12357 131.141L5.27646 130.294L4.35887 129.588C4.1471 129.588 4.07651 129.588 4.00592 129.659V140.882H0.900024V106.647H4.0765ZM4.0765 126.624C5.2765 126.553 6.40587 126.271 7.39411 125.847C8.38234 125.424 9.22945 124.788 10.0059 124.012C10.7118 123.306 11.2764 122.459 11.7 121.329C12.1235 120.341 12.2647 119.282 12.2647 118.153C12.2647 116.953 12.0529 115.824 11.6294 114.835C11.2059 113.847 10.5706 112.929 9.8647 112.153C9.08823 111.376 8.2412 110.741 7.25297 110.318C6.19414 109.894 5.13532 109.612 4.0765 109.612V126.624Z" fill="#97A1B7"/>
<path d="M19.0411 113H31.3941V115.965H22.0059V120.553H29.1353V123.518H22.0059V137.918H31.3941V140.882H19.0411V113Z" fill="#97A1B7"/>
<path d="M32.5235 135.729C34.147 137.282 35.7706 138.059 37.2529 138.059C37.6765 138.059 38.2411 137.988 38.7353 137.776C39.0176 137.706 39.2294 137.565 39.4411 137.424C39.6529 137.282 39.8647 137.141 40.147 136.929C40.5706 136.576 40.9235 136.153 41.1353 135.588C41.4176 135.094 41.5588 134.529 41.5588 133.894C41.5588 133.047 40.7824 131.424 39.3 129.024L37.2529 126.2C34.8529 122.953 33.6529 120.412 33.6529 118.576C33.6529 116.953 34.147 115.612 35.2059 114.553C36.1941 113.565 37.5352 113 39.1588 113C40.8529 113 42.2647 113.776 43.3941 115.329L41.4177 117.165C40.5 116.318 39.6529 115.965 38.8058 115.965C37.1823 115.965 36.4058 116.671 36.4058 118.153C36.4058 119.353 37.6059 121.612 40.0059 124.859C42.8294 129.447 44.2412 132.553 44.2412 134.318C44.2412 135.235 44.0294 136.082 43.6764 136.929C43.3235 137.776 42.8294 138.482 42.1941 139.047C41.5588 139.682 40.7824 140.176 40.0059 140.529C39.0882 140.882 38.1706 141.094 37.1824 141.094C35.6294 141.094 34.0059 140.6 32.3823 139.541V135.729H32.5235Z" fill="#97A1B7"/>
<path d="M49.9588 140.882V115.965H45.2294V113H57.5823V115.965H52.9235V140.882H49.9588Z" fill="#97A1B7"/>
<path d="M64.9236 113L71.9118 140.882H68.8765L67.9589 137.071H60.6883L59.7707 140.882H56.7354L63.653 113H64.9236ZM67.1824 134.176L64.2883 122.529L61.3942 134.176H67.1824Z" fill="#97A1B7"/>
<path d="M88.5 113V133.753C88.5 134.741 88.2882 135.729 87.9353 136.647C87.5118 137.565 87.0177 138.341 86.3824 138.976C85.7471 139.612 84.9706 140.176 84.0529 140.529C83.1353 140.953 82.2176 141.094 81.2294 141.094C80.2412 141.094 79.3236 140.882 78.4765 140.529C77.6295 140.106 76.853 139.612 76.1471 138.976C75.4412 138.341 74.947 137.565 74.5235 136.647C74.1 135.729 73.9589 134.812 73.9589 133.824V113H76.853L76.9235 133.894C76.9235 135.165 77.4177 136.153 78.2647 137C79.1118 137.847 80.1 138.271 81.2294 138.271C81.8647 138.271 82.4294 138.129 82.9235 137.918C83.4177 137.706 83.9118 137.424 84.2647 137C84.6177 136.647 84.9001 136.153 85.1824 135.588C85.3942 135.094 85.5354 134.529 85.5354 133.894V113H88.5Z" fill="#97A1B7"/>
<path d="M96.0529 113C97.2529 113.071 98.3824 113.353 99.5824 113.918C100.147 114.2 100.641 114.482 101.065 114.835C101.488 115.188 101.982 115.612 102.406 116.035C103.182 116.882 103.818 117.941 104.312 119C104.735 120.2 105.018 121.329 105.018 122.459C105.018 123.306 104.877 124.224 104.594 125.141C104.312 126.059 103.888 126.906 103.394 127.612C103.112 127.965 102.829 128.318 102.547 128.671C102.265 129.024 101.912 129.306 101.559 129.659C100.853 130.224 100.076 130.718 99.2294 131.071C99.3 131.212 99.3706 131.353 99.4412 131.424C99.5118 131.565 99.653 131.706 99.7236 131.847C99.7942 131.988 99.9353 132.2 100.077 132.341C100.218 132.553 100.288 132.694 100.429 132.976L101.629 135.306C102.406 136.788 103.535 137.706 105.088 138.2V141.165C104.524 141.024 104.029 140.812 103.677 140.671C103.253 140.529 102.9 140.318 102.547 140.176C101.912 139.894 101.347 139.612 100.994 139.259C100.571 138.976 100.288 138.624 100.006 138.2C99.8648 137.988 99.7236 137.706 99.653 137.494C99.5118 137.282 99.3706 136.929 99.2294 136.647L98.7353 135.447C98.6647 135.306 98.5941 135.165 98.5235 135.024C98.4529 134.882 98.3118 134.671 98.2412 134.459C97.9589 134.035 97.6059 133.541 97.253 132.976L96.6177 132.341L96.2647 131.988C96.1942 131.988 96.1236 131.918 96.1236 131.918C96.053 131.918 96.053 131.847 95.9824 131.847H96.0529V140.882H93.0177V113H96.0529ZM96.0529 128.953C96.8294 128.882 97.6059 128.671 98.3118 128.388C99.0177 128.035 99.6529 127.612 100.288 127.047C100.853 126.482 101.347 125.776 101.629 125.071C101.982 124.365 102.124 123.518 102.124 122.529C102.124 121.682 101.982 120.835 101.7 120.059C101.347 119.282 100.924 118.576 100.359 118.082C99.7942 117.518 99.1588 117.024 98.453 116.6C98.1 116.459 97.7471 116.318 97.3236 116.176C96.9 116.035 96.4765 115.965 96.0529 115.965V128.953V128.953Z" fill="#97A1B7"/>
<path d="M114.406 113L121.394 140.882H118.359L117.441 137.071H110.171L109.253 140.882H106.218L113.135 113H114.406ZM116.594 134.176L113.7 122.529L110.806 134.176H116.594Z" fill="#97A1B7"/>
<path d="M125.277 113L132.83 133.259V113H135.794V140.882H132.547L126.83 125.706V140.882H123.865V113H125.277Z" fill="#97A1B7"/>
<path d="M143.276 140.882V115.965H138.547V113H150.9V115.965H146.241V140.882H143.276Z" fill="#97A1B7"/>
</svg>
