<svg width="150" height="155" viewBox="0 0 150 155" fill="none" xmlns="http://www.w3.org/2000/svg">
<path d="M59.9629 124.037V122.307H62.9271V129.352H59.1602C57.6781 129.352 56.937 128.549 56.937 126.942V117.424C56.937 115.756 57.6781 114.952 59.1602 114.952H60.457C62.0626 114.952 62.9271 115.817 62.9271 117.486V119.031H61.0128V117.733C61.0128 117.053 60.7657 116.683 60.21 116.683H59.7159C59.1601 116.683 58.8514 117.053 58.8514 117.733V126.571C58.8514 127.251 59.1601 127.622 59.7159 127.622H61.0128V124.099H59.9629V124.037Z" fill="#97A1B7"/>
<path d="M64.471 114.829H68.238C69.7201 114.829 70.4611 115.632 70.4611 117.301V120.885C70.4611 122.121 70.0906 122.925 69.2878 123.295L70.6464 129.29H68.7938L67.4969 123.481H66.3236V129.29H64.4092V114.829H64.471ZM66.3854 121.812H67.6822C68.238 121.812 68.5467 121.441 68.5467 120.762V117.671C68.5467 116.992 68.238 116.621 67.6822 116.621H66.3854V121.812Z" fill="#97A1B7"/>
<path d="M72.0667 129.29V114.829H73.9811V129.29H72.0667Z" fill="#97A1B7"/>
<path d="M80.4035 129.29H75.8337V114.829H77.7481V127.56H80.4035V129.29Z" fill="#97A1B7"/>
<path d="M86.0848 129.29H81.515V114.829H83.4294V127.56H86.0848V129.29Z" fill="#97A1B7"/>
<path d="M90.9016 118.722V117.424C90.9016 116.868 90.5928 116.559 90.0371 116.559H89.7283C89.1725 116.559 88.9255 116.868 88.9255 117.424V119.835C88.9255 120.082 88.9872 120.267 89.1107 120.391C89.2343 120.514 89.4195 120.576 89.6048 120.762L91.4574 121.75C91.8897 121.998 92.1367 122.183 92.3219 122.307C92.5072 122.43 92.6307 122.616 92.6925 122.739C92.816 122.925 92.816 123.295 92.816 123.79V126.88C92.816 128.487 92.0132 129.29 90.4693 129.29H89.296C87.7522 129.29 87.0111 128.425 87.0111 126.633V125.891H88.9255V126.695C88.9255 127.251 89.2342 127.56 89.79 127.56H90.1606C90.6546 127.56 90.9016 127.251 90.9016 126.695V124.222C90.9016 123.975 90.8398 123.79 90.7163 123.666C90.5928 123.543 90.4076 123.481 90.2223 123.295L88.3697 122.245C87.9374 122.059 87.6904 121.874 87.5051 121.689C87.3199 121.565 87.1964 121.38 87.1346 121.132C87.0729 120.885 87.0111 120.576 87.0111 120.205V117.239C87.0111 115.57 87.7522 114.767 89.296 114.767H90.5311C92.0749 114.767 92.816 115.57 92.816 117.239V118.66H90.9016V118.722Z" fill="#97A1B7"/>
<path d="M14.0181 25.8951C15.8707 25.4625 17.1058 25.8951 17.7233 27.0694L20.6875 32.508C21.8608 34.6711 21.3668 36.3397 19.1437 37.514L13.3388 40.6659L1.60559 18.9733L6.5459 16.3158C9.13956 14.8943 11.1157 15.5124 12.536 18.1699L14.8209 22.3724C15.5002 23.6085 15.1914 24.7827 13.9564 25.7715L14.0181 25.8951ZM9.44833 26.575L10.8069 25.8333C11.9185 25.2153 12.1655 24.4119 11.6097 23.3612L9.75709 19.9621C9.20131 18.9115 8.46026 18.6025 7.59571 19.0969L5.8666 20.0239L9.44833 26.575ZM14.7592 36.4633L16.9205 35.2891C17.6616 34.8565 17.9086 34.362 17.5381 33.744L14.9444 28.9234C14.3886 27.8728 13.5241 27.6874 12.4125 28.3054L10.8069 29.1707L14.7592 36.4633Z" fill="#97A1B7"/>
<path d="M32.112 31.8282L29.0243 32.9406L22.2931 13.5965C21.3668 10.939 22.1696 9.14673 24.6398 8.2815L26.9864 7.47807C29.4566 6.61284 31.1857 7.53987 32.112 10.1974L38.8431 29.5415L35.7554 30.6539L32.7295 22.0634L29.1478 23.2994L32.112 31.8282ZM31.7414 19.2205L29.0243 11.4334C28.7155 10.5064 28.098 10.1974 27.1717 10.5682L26.3071 10.8772C25.3808 11.1862 25.072 11.8042 25.4426 12.7313L28.1597 20.5183L31.7414 19.2205Z" fill="#97A1B7"/>
<path d="M41.5603 3.33732L47.9209 2.16308C50.3911 1.73046 51.8732 2.8429 52.429 5.62401L53.5405 11.6188C53.9111 13.7201 53.5405 15.2034 52.3672 16.0068L56.5047 25.7097L53.417 26.266L49.4648 16.872L47.4887 17.2428L49.3413 27.0694L46.0683 27.6874L41.5603 3.33732ZM46.9946 14.3999L49.0943 14.0291C50.0823 13.8437 50.4528 13.1639 50.2058 11.9896L49.2178 6.73645C48.9708 5.5622 48.415 5.06779 47.4269 5.25319L45.3273 5.62401L46.9946 14.3999Z" fill="#97A1B7"/>
<path d="M70.6463 11.9278C72.499 12.3604 73.4253 13.2875 73.487 14.6471L73.734 20.8274C73.8575 23.2994 72.6225 24.5355 70.1523 24.6591L63.5447 24.9063L62.4948 0.247209L68.1144 4.96312e-07C71.0169 -0.123604 72.5607 1.29785 72.6842 4.26435L72.8695 9.02313C72.9312 10.4446 72.1902 11.3716 70.5846 11.7424L70.6463 11.9278ZM66.2001 10.5064L67.7439 10.4446C68.979 10.3828 69.5965 9.76475 69.5348 8.59051L69.3495 4.75877C69.2878 3.58453 68.7937 2.96651 67.8057 3.02831L65.8913 3.09011L66.2001 10.5064ZM66.6941 21.7544L69.1643 21.6308C70.0288 21.569 70.4611 21.1982 70.3993 20.5183L70.1523 15.0797C70.0906 13.9055 69.4113 13.3493 68.1144 13.4111L66.3236 13.4729L66.6941 21.7544Z" fill="#97A1B7"/>
<path d="M81.3298 24.7827L83.4912 0.185406L91.6427 0.927033L91.3956 3.89354L86.5171 3.46092L85.8378 10.939L90.1606 11.3098L89.9136 14.2763L85.5908 13.9055L84.8497 22.0634L89.7283 22.496L89.4813 25.4625L81.3298 24.7827Z" fill="#97A1B7"/>
<path d="M107.39 23.114L107.019 24.6591C106.402 27.3784 104.796 28.4908 102.264 27.8728L100.165 27.3784C97.571 26.8222 96.6447 25.1535 97.2623 22.4342L100.844 6.55104C101.462 3.83174 103.067 2.7193 105.599 3.33732L107.699 3.83174C110.292 4.38796 111.219 6.05662 110.601 8.77592L109.984 11.4952L106.772 10.7536L107.328 8.2815C107.513 7.35447 107.143 6.73645 106.217 6.55104L105.599 6.42743C104.734 6.24203 104.24 6.61284 103.993 7.53987L100.535 22.9904C100.35 23.9175 100.659 24.4737 101.462 24.6591L102.264 24.8445C103.129 25.0299 103.623 24.6591 103.87 23.7321L104.179 22.4342L107.39 23.114Z" fill="#97A1B7"/>
<path d="M132.03 11.8042L124.681 30.4067C123.508 33.3114 121.717 34.2384 119.247 33.3114L116.653 32.2608C114.183 31.2719 113.565 29.3561 114.677 26.4514L122.026 7.84888L125.113 9.08493L117.764 27.7492C117.394 28.738 117.641 29.4179 118.506 29.7887L119.741 30.2831C120.543 30.5921 121.161 30.2831 121.593 29.2943L128.942 10.63L132.03 11.8042Z" fill="#97A1B7"/>
<path d="M129.807 38.1938L142.404 16.9338L149.444 21.1364L147.9 23.7321L143.701 21.26L139.872 27.6874L143.578 29.9123L142.034 32.508L138.329 30.2831L134.129 37.3285L138.329 39.8006L136.785 42.3963L129.807 38.1938Z" fill="#97A1B7"/>
<path d="M90.5928 55.8074C90.5311 57.2289 91.8279 59.3301 94.2363 59.0829C96.5829 58.8357 97.324 56.6726 97.2005 55.5602C97.077 54.5096 96.83 53.5207 94.7921 51.7903C94.1745 51.2341 93.3717 49.4418 94.7303 47.0315C96.0889 44.6212 94.1745 41.1603 94.1745 41.1603C94.1745 41.1603 97.8798 43.8178 99.4854 46.9079C100.041 47.8967 99.0531 49.1946 100.35 50.7396C101.647 52.2229 102.203 52.0375 103.438 52.9645C105.537 54.5714 105.352 56.7963 104.734 59.2065C101.956 70.0219 96.7682 78.8596 74.6603 78.9215C52.5525 79.0451 47.6739 69.7747 45.8831 65.5104C44.1539 61.1842 46.9329 58.5267 46.7476 52.8409C46.5006 44.992 42.8571 43.8796 42.8571 43.8796C42.8571 43.8796 46.8094 44.065 48.2914 45.1156C49.7735 46.1663 49.8353 48.5148 50.3293 49.1946C50.8234 49.8744 51.8114 50.616 53.0465 49.998C54.2816 49.2564 54.4051 47.8967 53.664 46.9697C52.923 45.9809 48.3532 41.0985 50.0823 36.0307C51.8732 30.9629 58.9131 29.0471 58.9131 29.0471C57.9868 31.5191 52.676 40.4187 57.8015 41.9637C60.3334 42.6435 61.7538 41.1603 62.1243 39.4916C62.5566 37.5758 61.6303 35.2891 61.6303 35.2891C61.6303 35.2891 63.7917 36.5869 64.7797 38.8736C65.459 40.4187 65.212 42.8908 64.8415 43.8796C63.9769 46.1663 59.4689 50.6778 58.1103 53.9534C57.5545 55.3748 58.3573 56.1782 59.0984 56.4872C60.3334 56.8581 61.1362 56.0546 61.3833 55.2512C61.8773 53.2117 60.951 51.8521 60.951 51.8521C60.951 51.8521 63.1124 52.7791 63.1124 54.8804C63.1124 56.1164 62.1861 58.0941 61.3215 59.2683C59.4689 62.173 62.1243 63.9653 62.1243 63.9653C62.1243 63.9653 64.718 65.6958 66.6941 62.9765C68.8555 60.1336 68.1762 57.4761 66.3236 53.2117C64.5327 49.0092 66.2001 45.6101 67.9909 41.9019C69.967 37.823 63.5446 31.3955 63.5446 31.3955C63.5446 31.3955 74.4133 37.4522 71.9432 44.065C70.5228 47.8967 74.5368 49.5036 74.1045 53.0881C74.0428 53.7679 73.734 54.7568 73.24 55.6838C72.3754 57.2907 73.7958 58.1559 73.7958 58.1559C73.7958 58.1559 75.0309 59.0829 76.3894 57.4761C77.1305 56.6108 77.3775 55.3748 77.4393 54.2006C77.6245 50.1216 76.2042 49.689 75.8337 46.5371C75.2779 42.0255 76.2042 40.2951 76.2042 40.2951C76.2042 40.2951 77.254 47.9585 80.2799 46.9079C83.6764 45.61 79.7859 40.9749 79.6006 39.5534C79.1066 34.8565 83.3676 33.435 83.3676 33.435C83.3676 33.435 82.6883 33.744 81.8855 35.4127C81.3915 36.5251 81.515 38.3174 81.515 38.3174C81.515 38.3174 81.515 39.5534 82.6266 40.1097C84.1087 40.9131 85.2202 39.677 85.2202 39.677C85.2202 39.677 85.8378 39.059 85.8378 38.1938C85.8378 37.3285 86.0848 36.5869 86.0848 36.5869C86.0848 36.5869 87.9992 40.2333 84.2322 42.9526C82.8736 43.9414 84.5409 46.1663 84.0469 48.1439C83.5529 50.1216 80.8975 50.5542 80.4034 52.3465C79.9712 54.2006 79.9094 56.0546 80.5887 57.2289C81.268 58.4031 82.6883 59.3919 84.6027 58.8975C86.5171 58.3413 87.1964 56.3636 86.7023 54.8186C86.2083 53.2735 85.4055 51.6667 86.27 48.3912C87.1346 45.1156 91.5809 43.138 91.5809 43.138C91.5809 43.138 88.2462 47.1551 89.1725 48.7002C90.037 50.2452 92.6307 49.1946 91.8896 51.6667C90.5311 54.8804 90.5928 54.5714 90.5928 55.8074Z" fill="#97A1B7"/>
<path d="M74.2898 77.8708C65.0885 77.8708 57.9868 76.2022 53.17 72.9266C49.403 70.3309 47.7974 67.3644 46.8093 65.0778C45.9448 62.9147 46.3153 61.3078 46.8711 59.0829C47.3034 57.3525 47.7974 55.3748 47.6739 52.7791C47.5504 49.071 46.6858 46.7225 45.7595 45.301C46.5623 45.4864 47.2416 45.6718 47.6739 45.9809C48.3532 46.4753 48.6619 47.5259 48.909 48.3911C49.0942 48.9474 49.2177 49.4418 49.4648 49.8126C50.144 50.7396 51.0704 51.2959 52.0584 51.2959C52.5524 51.2959 53.0465 51.1722 53.4787 50.925H53.5405H53.6023C54.4051 50.4306 54.9608 49.689 55.0843 48.8238C55.2079 47.9585 55.0226 47.1551 54.4668 46.4135C54.4051 46.2899 54.2815 46.1663 54.158 46.0427C53.0465 44.683 49.65 40.4805 51.0703 36.4015C52.0584 33.5586 54.9608 31.8281 56.9987 30.9011C55.6401 33.8058 53.7875 38.0084 54.9608 40.7895C55.3931 41.8401 56.2577 42.5817 57.4927 42.9526H57.5545C58.0485 43.0762 58.5426 43.138 58.9748 43.138C61.0127 43.138 62.6183 41.7783 63.0506 39.7388C63.1741 39.2444 63.1741 38.6882 63.1741 38.1938C63.4211 38.5028 63.6681 38.9354 63.7916 39.3062C64.3474 40.5423 64.1004 42.7671 63.8534 43.5088C63.4829 44.4358 62.2478 46.0427 61.0745 47.5877C59.5306 49.6272 57.925 51.6667 57.1222 53.5207C56.4429 55.1894 57.0605 56.6726 58.6661 57.4143H58.7278H58.7896C59.0983 57.4761 59.4071 57.5379 59.6541 57.5379C60.4569 57.5379 61.1362 57.1671 61.6303 56.6726C61.3215 57.3525 60.951 58.0323 60.5187 58.5885C58.5426 61.6168 60.6422 64.0271 61.6303 64.6451C61.7538 64.7069 62.7418 65.3868 64.1004 65.3868C65.0267 65.3868 66.447 65.0777 67.6204 63.4709C70.214 60.01 69.1025 56.6726 67.3734 52.7173C65.7678 49.0092 67.2498 45.9191 68.979 42.3963L69.0407 42.2727C69.967 40.4187 69.473 38.2556 68.4849 36.2779C70.5228 38.3792 72.1284 40.9749 71.1403 43.6324C70.214 46.1663 71.2638 47.9585 72.1284 49.5036C72.8077 50.616 73.3635 51.6049 73.24 52.8409C73.1782 53.5207 72.8694 54.3242 72.4989 55.0658C71.5726 56.8581 72.4989 58.2795 73.3635 58.8357C73.5487 58.9593 74.1045 59.2683 74.8456 59.2683C75.4631 59.2683 76.3894 59.0211 77.3157 57.9705C78.1185 57.0435 78.489 55.7456 78.6126 54.077C78.7361 51.4813 78.242 50.1834 77.748 48.9474C77.4392 48.1439 77.1305 47.4023 77.0069 46.2281C77.0069 46.0427 76.9452 45.7955 76.9452 45.61C77.6245 46.8461 78.5508 47.8349 79.8476 47.8349C80.1564 47.8349 80.4652 47.7731 80.7122 47.6495C81.6385 47.2787 82.256 46.7225 82.5648 45.9191C82.7501 45.4864 82.7501 45.0538 82.7501 44.5594C82.8118 44.9302 82.8736 45.301 82.9353 45.61C83.1206 46.3517 83.2441 47.0933 83.1206 47.7113C82.9353 48.3911 82.3795 48.8238 81.6385 49.3182C80.7739 49.9362 79.8476 50.616 79.4771 51.9139C79.1683 53.2117 78.7361 55.7456 79.7859 57.5379C80.5887 58.9593 82.0708 59.8246 83.6146 59.8246C84.0469 59.8246 84.4792 59.7628 84.9114 59.6392C85.9613 59.3301 86.8876 58.6503 87.3816 57.7233C87.9374 56.7344 88.0609 55.4366 87.7521 54.3242C87.6904 54.1388 87.6286 53.8915 87.5669 53.7061C87.1346 52.4083 86.6405 51.0486 87.3198 48.5148C87.5051 47.8967 87.8139 47.3405 88.2461 46.7843C87.9991 47.7113 87.9991 48.3911 88.3697 49.0092C88.9254 49.998 89.9135 50.307 90.531 50.4924C90.7163 50.5542 90.9633 50.616 91.0868 50.6778C91.0868 50.7396 91.0868 50.8632 91.0251 51.1104C90.8398 51.6049 90.6545 51.9757 90.531 52.3465C89.7282 54.1388 89.6665 54.3242 89.6665 55.4366V55.5602C89.6665 56.6108 90.1605 57.7851 90.9633 58.6503C91.7661 59.4537 92.8159 59.8864 93.9275 59.8864C94.1128 59.8864 94.2363 59.8864 94.4215 59.8864C95.5948 59.7628 96.5829 59.2065 97.324 58.3413C98.1885 57.2907 98.3738 55.9928 98.2503 55.2512C98.1268 54.0152 97.818 52.7791 95.5331 50.8014C95.3478 50.616 94.545 49.3182 95.7184 47.2787C96.3359 46.2281 96.3976 45.0538 96.3359 43.9414C97.2622 44.8684 98.1885 45.9191 98.806 47.0933C98.8678 47.2787 98.8678 47.5259 98.8678 47.8967C98.806 48.7002 98.7443 49.8744 99.7941 51.0486C100.72 52.1611 101.4 52.4701 102.017 52.8409C102.326 53.0263 102.635 53.1499 103.067 53.4589C104.673 54.6332 104.611 56.3018 103.993 58.6503C102.82 63.2237 100.967 68.4151 96.5212 71.9996C91.8896 75.7077 84.8497 77.5618 74.9073 77.6236C74.5986 77.8708 74.4133 77.8708 74.2898 77.8708ZM82.7501 44.4976C82.5648 43.2616 81.9473 41.9637 81.3915 40.9131C81.1445 40.4187 80.7739 39.677 80.7122 39.4916C80.7122 39.3062 80.6504 39.059 80.6504 38.8736C80.7739 39.6152 81.268 40.5423 82.256 41.0367C82.7501 41.2839 83.2441 41.4075 83.7381 41.4075C84.1086 41.4075 84.4174 41.3457 84.6644 41.2221C84.4174 41.5311 84.0469 41.8401 83.6146 42.1491C82.8736 42.8289 82.6883 43.6324 82.7501 44.4976Z" fill="#97A1B7"/>
<path d="M91.0869 106.114C86.8876 104.322 87.7522 102.097 87.7522 102.097L87.6904 100.305L87.4434 100.181L87.6904 99.9342V99.5634L87.9374 99.687L89.1725 98.451C89.1725 98.451 90.0371 96.2261 94.3598 97.7711C98.6826 99.3162 113.133 105.126 113.133 105.126L117.023 106.609C117.023 106.609 118.259 108.278 117.332 110.255C117.209 110.564 117.085 110.873 116.962 111.059C116.962 110.997 116.962 111.244 116.962 111.244H116.9C116.9 111.306 116.838 111.368 116.838 111.368C116.838 111.429 116.776 111.429 116.776 111.491H116.838C116.838 111.491 116.715 111.677 116.715 111.615C116.653 111.8 116.529 112.047 116.468 112.418C115.788 114.52 113.751 114.89 113.751 114.89L109.86 113.407C109.922 113.407 95.3479 107.845 91.0869 106.114Z" fill="#97A1B7"/>
<path d="M28.9626 90.7257C28.9626 90.7257 15.1914 84.2982 9.44834 80.7755C7.84274 79.7867 7.34871 79.4159 6.66942 78.7978C4.81681 77.1292 5.37259 75.7695 5.37259 75.7695L7.9045 69.0949L7.96625 68.9095L8.02801 68.7241L10.6834 62.1112C10.6834 62.1112 11.1157 60.7516 13.6476 60.7516C14.5739 60.7516 15.1914 60.8134 17.0441 61.1842C23.7135 62.4821 38.1639 67.0554 38.1639 67.0554C38.1639 67.0554 41.1898 67.9207 42.3014 70.1455C43.3512 72.3704 41.3751 76.6966 44.648 79.0451C45.8831 79.9103 47.6122 80.7755 49.4648 81.5789C54.7756 83.8656 90.5311 97.5857 90.5311 97.5857L89.4195 100.49L89.296 100.861L88.1845 103.766C88.1845 103.766 52.5525 89.6132 47.1182 87.7592C45.2038 87.0793 43.3512 86.5231 41.8691 86.3377C37.9169 85.8433 36.373 90.3549 34.0881 91.2819C31.7415 92.1471 28.9626 90.7257 28.9626 90.7257Z" fill="#97A1B7"/>
<path d="M36.2495 73.1738C36.7436 73.3593 37.3611 72.8648 37.7316 72.0614C38.1021 71.258 37.9786 70.3927 37.5464 70.2073L14.9445 63.7799C14.4504 63.5945 13.8329 64.0889 13.4624 64.8923C13.0919 65.6958 13.2154 66.561 13.6476 66.7464L36.2495 73.1738Z" fill="#C3CDE2"/>
<path d="M31.7415 84.6072C32.2355 84.7927 32.359 85.5961 32.112 86.4613C31.8032 87.3265 31.1857 87.8828 30.6917 87.6974L9.69539 77.1292C9.20135 76.9438 9.07785 76.1404 9.32486 75.2751C9.63363 74.4099 10.2512 73.8537 10.7452 74.0391L31.7415 84.6072Z" fill="#C3CDE2"/>
<path d="M34.3352 80.5901C34.7057 80.7137 35.3232 80.2193 35.632 79.4159C35.9408 78.6124 35.879 77.8708 35.5085 77.6854L12.7831 68.8477C12.4126 68.7241 11.795 69.2185 11.4863 70.0219C11.1775 70.8254 11.2393 71.567 11.6098 71.7524L34.3352 80.5901Z" fill="#C3CDE2"/>
<path d="M59.0984 106.114C63.2977 104.322 62.4331 102.097 62.4331 102.097L62.4949 100.305L62.7419 100.181L62.4949 99.9342V99.5634L62.2479 99.687L61.0128 98.451C61.0128 98.451 60.1482 96.2261 55.8255 97.7711C51.5027 99.3162 37.0523 105.126 37.0523 105.126L33.1618 106.609C33.1618 106.609 31.9267 108.278 32.853 110.255C32.9765 110.564 33.1001 110.873 33.2236 111.059C33.2236 110.997 33.2236 111.244 33.2236 111.244H33.2853C33.2853 111.306 33.3471 111.368 33.3471 111.368C33.3471 111.429 33.4088 111.429 33.4088 111.491H33.3471C33.3471 111.491 33.4706 111.677 33.4706 111.615C33.5323 111.8 33.6558 112.047 33.7176 112.418C34.3969 114.52 36.4348 114.89 36.4348 114.89L40.3253 113.407C40.2635 113.407 54.8374 107.845 59.0984 106.114Z" fill="#97A1B7"/>
<path d="M121.284 90.7257C121.284 90.7257 135.056 84.2982 140.799 80.7755C142.404 79.7867 142.898 79.4159 143.578 78.7978C145.43 77.1292 144.874 75.7695 144.874 75.7695L142.343 69.0949L142.281 68.9095L142.219 68.7241L139.564 62.1112C139.564 62.1112 139.131 60.7516 136.599 60.7516C135.673 60.7516 135.056 60.8134 133.203 61.1842C126.534 62.4821 112.083 67.0554 112.083 67.0554C112.083 67.0554 109.057 67.9207 107.946 70.1455C106.896 72.3704 108.872 76.6966 105.599 79.0451C104.364 79.9103 102.635 80.7755 100.782 81.5789C95.4714 83.8656 59.7159 97.5857 59.7159 97.5857L60.8275 100.49L60.951 100.861L62.0626 103.766C62.0626 103.766 97.6945 89.6132 103.129 87.7592C105.043 87.0793 106.896 86.5231 108.378 86.3377C112.33 85.8433 113.874 90.3549 116.159 91.2819C118.444 92.1471 121.284 90.7257 121.284 90.7257Z" fill="#97A1B7"/>
<path d="M113.936 73.1738C113.442 73.3593 112.824 72.8648 112.454 72.0614C112.083 71.258 112.207 70.3927 112.639 70.2073L135.241 63.7799C135.735 63.5945 136.352 64.0889 136.723 64.8923C137.093 65.6958 136.97 66.561 136.538 66.7464L113.936 73.1738Z" fill="#C3CDE2"/>
<path d="M118.444 84.6072C117.95 84.7927 117.826 85.5961 118.073 86.4613C118.382 87.3265 119 87.8828 119.494 87.6974L140.49 77.1292C140.984 76.9438 141.107 76.1404 140.86 75.2751C140.552 74.4099 139.934 73.8537 139.44 74.0391L118.444 84.6072Z" fill="#C3CDE2"/>
<path d="M115.85 80.5901C115.48 80.7137 114.862 80.2193 114.553 79.4159C114.245 78.6124 114.306 77.8708 114.677 77.6854L137.402 68.8477C137.773 68.7241 138.39 69.2185 138.699 70.0219C139.008 70.8254 138.946 71.567 138.576 71.7524L115.85 80.5901Z" fill="#C3CDE2"/>
<path d="M0 129.599L8.9543 118.537L10.4364 119.711L1.48209 130.835L0 129.599Z" fill="#97A1B7"/>
<path d="M12.4743 129.661L16.303 123.913L17.9086 124.964L10.0041 136.83L8.3985 135.78L10.0041 133.431L11.9185 126.88L6.73115 134.667L5.12555 133.616L13.03 121.75L14.6356 122.801L12.4743 129.661Z" fill="#97A1B7"/>
<path d="M22.5401 129.599L16.6117 140.662L14.9444 139.735L20.8728 128.672L19.2672 127.807L20.07 126.262L24.9485 128.919L24.1457 130.465L22.5401 129.599Z" fill="#97A1B7"/>
<path d="M21.5521 143.072L27.2952 130.032L31.6179 131.948L30.9386 133.555L28.345 132.442L26.6159 136.398L28.9008 137.386L28.2215 138.993L25.9366 138.004L24.0222 142.331L26.6159 143.443L25.9366 145.05L21.5521 143.072Z" fill="#97A1B7"/>
<path d="M34.3969 133.06L37.9169 134.296C39.2754 134.791 39.7077 135.78 39.1519 137.325L37.9786 140.662C37.5463 141.836 36.9288 142.454 36.126 142.516L35.4467 148.573L33.7176 147.955L34.4586 142.083L33.3471 141.713L31.4327 147.151L29.6418 146.533L34.3969 133.06ZM33.9029 140.167L35.0762 140.6C35.632 140.785 36.0025 140.538 36.2495 139.92L37.2376 137.016C37.4846 136.336 37.2993 135.965 36.7435 135.78L35.5702 135.347L33.9029 140.167Z" fill="#97A1B7"/>
<path d="M45.0186 143.567L46.7477 136.892L48.6003 137.386L44.9568 151.168L43.1042 150.674L43.8452 147.955L43.5365 141.156L41.1281 150.179L39.2755 149.685L42.9189 135.903L44.7715 136.398L45.0186 143.567Z" fill="#97A1B7"/>
<path d="M51.0704 152.466L49.2178 152.095L51.3792 140.476C51.6879 138.87 52.5525 138.19 54.0346 138.499L55.4549 138.746C56.937 138.993 57.5545 139.982 57.2458 141.589L55.0844 153.208L53.2318 152.837L54.1581 147.707L51.9967 147.337L51.0704 152.466ZM54.4668 146.039L55.3314 141.342C55.4549 140.785 55.2079 140.476 54.6521 140.353L54.1581 140.229C53.6023 140.106 53.2935 140.353 53.17 140.909L52.3055 145.606L54.4668 146.039Z" fill="#97A1B7"/>
<path d="M63.73 141.713L62.3096 154.135L60.3952 153.888L61.8156 141.465L60.0247 141.28L60.21 139.549L65.7061 140.167L65.5208 141.898L63.73 141.713Z" fill="#97A1B7"/>
<path d="M67.5587 154.629L68.485 140.415L70.3993 140.538L69.473 154.753L67.5587 154.629Z" fill="#97A1B7"/>
<path d="M75.9572 155C74.4133 155 73.6723 154.197 73.6723 152.528L73.7958 143.134C73.7958 141.527 74.5986 140.724 76.0807 140.724H77.9333C79.4772 140.724 80.2182 141.589 80.2182 143.196L80.0947 152.59C80.0947 154.197 79.2919 155 77.7481 155H75.9572ZM76.3895 153.27H77.3775C77.8716 153.27 78.1186 153.022 78.1186 152.466L78.2421 143.319C78.2421 142.763 77.9951 142.454 77.3775 142.454H76.513C75.9572 142.454 75.6484 142.701 75.6484 143.258L75.5249 152.404C75.5249 153.022 75.8337 153.27 76.3895 153.27Z" fill="#97A1B7"/>
<path d="M87.8139 147.337L87.4434 140.476L89.3578 140.353L90.1606 154.567L88.2462 154.691L88.0609 151.848L85.6525 145.482L86.2083 154.815L84.294 154.938L83.4911 140.724L85.4055 140.6L87.8139 147.337Z" fill="#97A1B7"/>
<path d="M96.2125 154.011L94.2981 154.258L92.816 142.516C92.6307 140.909 93.2483 139.982 94.7921 139.797L96.2125 139.611C97.6945 139.426 98.5591 140.106 98.8061 141.774L100.288 153.517L98.3738 153.764L97.6945 148.573L95.5332 148.82L96.2125 154.011ZM97.571 146.842L96.9535 142.145C96.8917 141.589 96.583 141.342 96.0272 141.404L95.5332 141.465C94.9774 141.527 94.7304 141.836 94.7921 142.392L95.4097 147.089L97.571 146.842Z" fill="#97A1B7"/>
<path d="M108.872 151.972L104.426 152.837L101.77 138.808L103.623 138.437L105.97 150.736L108.563 150.241L108.872 151.972Z" fill="#97A1B7"/>
<path d="M119.617 140.662L120.111 142.331L117.703 143.01L119.555 149.191L117.703 149.747L113.689 136.089L118.197 134.729L118.691 136.398L115.974 137.201L117.209 141.342L119.617 140.662Z" fill="#97A1B7"/>
<path d="M128.016 146.471C126.595 147.027 125.607 146.533 124.99 144.988L121.655 136.212C121.099 134.667 121.531 133.678 122.952 133.122L124.681 132.504C126.101 131.948 127.089 132.442 127.707 133.987L131.042 142.763C131.597 144.246 131.165 145.297 129.745 145.853L128.016 146.471ZM127.83 144.679L128.757 144.308C129.251 144.123 129.374 143.752 129.189 143.258L125.978 134.729C125.793 134.234 125.422 134.049 124.866 134.234L124.002 134.543C123.508 134.729 123.322 135.1 123.508 135.594L126.719 144.123C126.966 144.741 127.336 144.864 127.83 144.679Z" fill="#97A1B7"/>
<path d="M137.896 142.331C136.538 143.01 135.488 142.578 134.747 141.156L130.671 132.689C129.992 131.206 130.301 130.156 131.659 129.476L133.326 128.672C134.685 127.992 135.735 128.425 136.414 129.908L140.49 138.375C141.169 139.858 140.86 140.909 139.44 141.527L137.896 142.331ZM137.587 140.6L138.452 140.167C138.884 139.92 139.008 139.611 138.761 139.117L134.809 130.897C134.562 130.403 134.191 130.279 133.697 130.526L132.894 130.897C132.4 131.144 132.277 131.515 132.524 132.01L136.476 140.229C136.661 140.662 137.032 140.786 137.587 140.6Z" fill="#97A1B7"/>
<path d="M145.554 138.437L138.205 126.2L141.046 124.47C142.59 123.543 143.825 123.852 144.751 125.459L149.629 133.555C150.309 134.729 150.062 135.718 148.765 136.521L145.554 138.437ZM146.295 135.965L147.53 135.223C147.962 134.976 148.086 134.667 147.839 134.296L143.145 126.447C142.775 125.829 142.343 125.706 141.91 126.015L140.799 126.695L146.295 135.965Z" fill="#97A1B7"/>
</svg>
