<svg width="151" height="145" viewBox="0 0 151 145" fill="none" xmlns="http://www.w3.org/2000/svg">
<path d="M96.9619 46.1771C97.0946 45.9781 97.559 46.2435 97.3599 46.4425L87.674 60.5071C87.1432 61.2369 88.1384 61.9666 88.6691 61.1705L99.3502 47.8357C99.4829 47.6367 99.9473 47.9021 99.7483 48.1011L90.394 62.431C90.1286 62.8291 90.2613 63.1608 90.5267 63.3598C90.7921 63.5589 91.1901 63.5589 91.4555 63.1608L101.672 49.4943C101.805 49.2952 102.269 49.5606 102.07 49.7596L93.1804 64.355C92.6496 65.0847 93.6448 65.8145 94.1755 65.0184L104.061 51.0865C104.193 50.8875 104.658 51.1528 104.459 51.3518C104.459 51.3518 97.2936 64.0896 96.0994 66.2789C94.6399 68.9326 92.9813 71.4536 90.3277 73.0458C88.8681 73.9082 87.1432 74.3063 85.2193 74.0409C79.6465 82.201 64.4542 104.625 60.4736 110.728C59.9429 111.524 58.9477 111.723 58.1516 111.193L56.4931 109.998C55.7633 109.468 55.5643 108.406 56.095 107.676C60.4736 101.838 76.3294 79.9454 82.1012 71.918C81.1724 70.2594 80.9734 68.4682 81.3051 66.8096C81.8358 63.7579 83.6934 61.3696 85.6837 59.0476C87.4086 57.2563 96.9619 46.1771 96.9619 46.1771Z" fill="#97A1B7"/>
<path d="M51.9154 47.2387C51.053 45.9782 48.731 45.9781 48.93 48.8308C49.129 53.0768 52.6452 62.9618 56.8247 69.397C60.1419 74.5717 64.5868 78.4195 68.5673 77.2254C75.2016 86.7123 88.9344 105.952 91.9862 110.529C92.4506 111.259 93.4457 111.458 94.1755 110.927L95.7677 109.799C96.4975 109.269 96.6301 108.274 96.0994 107.61C92.7159 103.298 78.5187 84.324 71.6191 75.0361C68.9654 71.5199 52.6452 48.2338 51.9154 47.2387Z" fill="#97A1B7"/>
<path d="M23.5872 48.4328C23.5208 48.6318 23.4545 48.8308 23.3882 49.0299C23.3218 49.2289 23.2555 49.4279 23.1228 49.6933L27.3024 51.6836L25.5111 55.5314L8.92554 47.703L10.7168 43.8552C11.1812 42.9264 11.7783 42.1303 12.508 41.4005C13.2378 40.7371 14.0339 40.2063 14.8963 39.8746C15.7588 39.5429 16.6212 39.3439 17.55 39.3439C18.4788 39.3439 19.3413 39.5429 20.2037 39.941C21.0662 40.3391 21.8623 40.9361 22.393 41.6659C22.9901 42.3956 23.3882 43.2581 23.6535 44.1869L31.2829 43.3244L29.1599 47.8357L23.5872 48.4328ZM19.2749 47.9021C19.474 47.504 19.5403 47.0396 19.6067 46.6416C19.673 46.2435 19.6067 45.7791 19.5403 45.4474C19.474 45.0494 19.3413 44.7176 19.1423 44.4523C18.9432 44.1869 18.6779 43.9215 18.3461 43.7888C18.0144 43.6562 17.6827 43.5898 17.351 43.5898C17.0193 43.5898 16.6876 43.7225 16.2895 43.9215C15.9578 44.1206 15.6261 44.3196 15.2944 44.6513C14.9627 44.983 14.7637 45.3147 14.4983 45.7127L19.2749 47.9021Z" fill="#97A1B7"/>
<path d="M28.3638 24.8149L23.5209 30.6531L25.6438 32.4443L29.558 27.734L32.8088 30.454L28.8946 35.1644L31.1502 37.0219L35.9932 31.1838L39.244 33.9038L31.681 42.9927L17.55 31.2501L25.1131 22.0949L28.3638 24.8149Z" fill="#97A1B7"/>
<path d="M44.7502 30.056C44.2858 30.3877 43.7551 30.7194 43.2243 30.9184C42.6936 31.1174 42.0965 31.2501 41.4994 31.3165C40.438 31.3828 39.4428 31.1838 38.4477 30.7857C37.5189 30.3213 36.6564 29.6579 35.993 28.7954L39.3765 26.2744C39.7082 26.6725 39.9736 26.9379 40.3053 27.0042C40.637 27.0706 40.9024 27.1369 41.1014 27.1369C41.4331 27.1369 41.7648 27.0042 42.0965 26.8052C42.3619 26.6062 42.6273 26.3408 42.8263 26.0091C42.959 25.8101 43.0253 25.5447 43.0253 25.3457C43.0253 25.1467 43.0253 24.9476 43.0253 24.8149C43.0253 24.6822 42.959 24.5496 42.8926 24.4169C42.8263 24.2842 42.7599 24.2178 42.6936 24.1515C42.6273 24.0851 42.5609 24.0188 42.4946 23.8861C42.4282 23.8198 42.2955 23.6871 42.0965 23.6208C41.9638 23.5544 41.7648 23.4881 41.5658 23.4881C41.3668 23.4881 41.1677 23.4881 40.9024 23.4881C40.7033 23.5544 40.5043 23.6208 40.3053 23.6871C40.1062 23.7535 39.9072 23.8198 39.6419 23.8861C39.2438 24.0188 38.7794 24.1515 38.315 24.2842C37.8506 24.4169 37.3862 24.4832 36.8555 24.5496C36.1921 24.6159 35.5286 24.5496 34.8652 24.3505C34.2018 24.1515 33.6047 23.8198 33.1403 23.4217C32.6096 23.0237 32.2115 22.5593 31.8135 21.9622C31.4817 21.3651 31.2164 20.7681 31.0837 20.0383C31.0173 19.3749 31.0173 18.7778 31.0837 18.1807C31.2164 17.5836 31.4154 16.9865 31.6808 16.4558C31.9461 15.9251 32.3442 15.4607 32.8749 15.0626C33.3393 14.6646 33.9364 14.3329 34.5335 14.0675C35.1306 13.8021 35.7277 13.6694 36.3247 13.6031C36.9218 13.5367 37.5189 13.6031 38.116 13.7358C38.7131 13.8685 39.2438 14.1338 39.7082 14.4655C40.2389 14.7972 40.637 15.1953 41.035 15.726L37.6516 18.247C37.4526 17.9153 37.1872 17.7826 36.8555 17.849C36.5901 17.849 36.3247 17.9153 36.1921 17.9817C36.1921 17.9817 36.1257 18.048 35.993 18.1144C35.8603 18.1807 35.794 18.2471 35.6613 18.3797C35.5286 18.5124 35.4623 18.6451 35.3959 18.8441C35.3296 19.0431 35.3296 19.2422 35.3296 19.4412C35.3959 19.7066 35.5286 19.9719 35.794 20.1709C36.0594 20.37 36.3247 20.4363 36.5901 20.4363C36.8555 20.4363 37.1208 20.37 37.4526 20.2373C37.7179 20.171 38.0496 20.0383 38.3813 19.9719C38.6467 19.8392 38.9121 19.7729 39.2438 19.7066C39.5092 19.6402 39.8409 19.5075 40.1726 19.4412C41.3668 19.1758 42.4946 19.2422 43.5561 19.6402C44.6175 20.0383 45.5463 20.7017 46.2097 21.6969C46.9395 22.6256 47.2712 23.6871 47.4039 24.8149C47.4702 25.9427 47.2049 27.0705 46.6741 28.132C46.4751 28.5301 46.2097 28.9281 45.878 29.2599C45.48 29.5252 45.1483 29.7906 44.7502 30.056Z" fill="#97A1B7"/>
<path d="M52.5123 4.64688L54.2372 8.49473L50.9864 9.95427L56.7582 22.9573L52.9104 24.6823L47.1386 11.6792L43.9541 13.0724L42.2292 9.22448L52.5123 4.64688Z" fill="#97A1B7"/>
<path d="M71.0882 19.3749L70.0267 17.3183L64.3213 18.2471L63.9232 20.569L59.4783 21.2988L62.5964 2.12589L66.5769 1.46246L75.4668 18.6451L71.0882 19.3749ZM65.051 13.8684L67.9701 13.4041L65.7808 9.22448L65.051 13.8684Z" fill="#97A1B7"/>
<path d="M82.5653 19.6402C81.6366 19.5075 80.7741 19.2422 79.978 18.8441C79.1819 18.3797 78.5185 17.849 77.9214 17.1192C77.3243 16.3895 76.9262 15.5934 76.6609 14.7309C76.3955 13.8685 76.3292 12.9397 76.3955 12.0109L77.7887 0.599976L81.9683 1.13075L80.6414 12.5416C80.5751 13.2714 80.7741 13.9348 81.2385 14.5319C81.7029 15.1289 82.3663 15.4607 83.0961 15.527C83.4278 15.5933 83.8259 15.527 84.1576 15.4607C84.4893 15.328 84.821 15.1953 85.0864 14.9963C85.3517 14.7972 85.6171 14.5319 85.7498 14.2002C85.9488 13.8684 86.0151 13.5367 86.0815 13.1387L87.4083 1.79417L91.5879 2.3249L90.2611 13.6031C90.1947 14.5319 89.863 15.3943 89.3986 16.2568C88.9342 17.0529 88.3371 17.7163 87.6737 18.3134C86.9439 18.8441 86.2142 19.3085 85.2854 19.5739C84.4229 19.8393 83.4941 19.9056 82.5653 19.8392V19.6402Z" fill="#97A1B7"/>
<path d="M97.8241 18.6451C97.6251 18.5788 97.426 18.5124 97.227 18.4461C97.028 18.3797 96.829 18.3134 96.5636 18.2471L94.7724 22.4929L90.8582 20.8344L97.8904 3.9171L101.805 5.57566C102.8 5.97371 103.596 6.57079 104.326 7.23422C105.055 7.89764 105.586 8.69375 105.984 9.5562C106.382 10.4186 106.581 11.2811 106.648 12.1436C106.714 13.0724 106.515 13.9348 106.183 14.7973C105.785 15.726 105.254 16.4558 104.525 17.0529C103.795 17.65 102.999 18.1144 102.07 18.3798L103.264 26.0091L98.6866 24.0852L97.8241 18.6451ZM98.1558 14.3329C98.5539 14.4655 99.0183 14.5982 99.4163 14.5982C99.8807 14.5982 100.279 14.5982 100.61 14.4655C101.009 14.3992 101.34 14.2002 101.606 14.0011C101.871 13.8021 102.07 13.5367 102.203 13.205C102.335 12.8733 102.402 12.5416 102.335 12.2099C102.269 11.8782 102.136 11.5465 102.004 11.2148C101.805 10.883 101.539 10.5514 101.208 10.286C100.876 10.0206 100.544 9.75522 100.08 9.5562L98.1558 14.3329Z" fill="#97A1B7"/>
<path d="M112.154 33.0414L112.95 30.8521L108.439 27.2696L106.449 28.5301L102.932 25.7437L119.253 15.2617L122.371 17.7827L115.537 35.8278L112.154 33.0414ZM112.22 24.8813L114.542 26.7389L116.201 22.3603L112.22 24.8813Z" fill="#97A1B7"/>
<path d="M136.767 34.1692L139.156 37.619L124.096 48.1674L121.442 44.3859L126.882 33.3731L118.059 39.4766L115.604 36.0268L130.664 25.5447L133.317 29.3262L127.944 40.339L136.767 34.1692Z" fill="#97A1B7"/>
<path d="M145.392 53.0104L141.411 54.47L140.217 51.1528L126.882 56.0622L125.423 52.0816L138.757 47.1723L137.563 43.8552L141.544 42.3956L145.392 53.0104Z" fill="#97A1B7"/>
<path d="M20.7344 106.615C20.6017 106.35 20.4691 106.217 20.3364 106.151C20.1373 106.084 19.872 106.084 19.5403 106.283L17.351 107.278C17.2183 107.345 17.0193 107.146 16.6212 106.814C16.2231 106.416 15.8914 105.952 15.6924 105.554C15.1617 104.426 15.1617 103.364 15.6261 102.435C16.0241 101.639 16.8202 100.976 17.8817 100.445C18.8105 99.9808 19.7393 99.9145 20.7344 100.18C21.7296 100.445 22.4593 101.042 22.9237 101.971C23.1227 102.369 23.1891 102.767 23.1891 103.165C23.1891 103.563 23.2554 103.762 23.2554 103.829C23.3218 104.028 23.5208 104.094 23.8525 104.028L23.9852 104.293L21.8622 105.355L21.7296 105.156C22.194 104.691 22.5257 104.293 22.7247 103.961C22.9901 103.431 22.9901 102.834 22.7247 102.236C22.4593 101.639 21.9286 101.175 21.2652 100.91C20.3364 100.578 19.2749 100.644 18.0144 101.241C17.0193 101.706 16.3558 102.369 16.0241 103.165C15.6924 103.961 15.6924 104.757 16.0241 105.487C16.1568 105.819 16.4222 106.151 16.6875 106.35C16.9529 106.549 17.2183 106.681 17.4173 106.549L19.1422 105.753C19.5403 105.554 19.8056 105.355 19.872 105.156C19.872 105.023 19.8056 104.824 19.6729 104.359L19.872 104.293L20.9334 106.549L20.7344 106.615Z" fill="#97A1B7"/>
<path d="M24.4496 112.785C23.3881 113.448 22.393 113.647 21.4642 113.515C20.5354 113.382 19.8056 112.918 19.3412 112.055C18.8768 111.259 18.7441 110.397 19.0095 109.534C19.3412 108.605 20.0047 107.809 20.9998 107.146C22.0613 106.482 23.1227 106.217 24.1179 106.416C25.0467 106.615 25.7101 107.079 26.1745 107.809C26.6389 108.605 26.7716 109.401 26.5062 110.264C26.2408 111.325 25.5774 112.121 24.4496 112.785ZM24.1179 112.121C25.1794 111.458 25.8428 110.728 26.1745 109.866C26.3735 109.136 26.3735 108.539 25.9755 108.008C25.6438 107.477 25.113 107.146 24.3832 107.013C23.4545 106.88 22.5257 107.146 21.4642 107.809C20.4027 108.473 19.7393 109.202 19.4739 109.998C19.2085 110.728 19.2749 111.325 19.6066 111.922C19.9383 112.52 20.469 112.851 21.2652 112.918C22.0613 113.05 23.0564 112.785 24.1179 112.121Z" fill="#97A1B7"/>
<path d="M29.027 118.689C28.0982 119.419 27.1031 119.817 26.108 119.751C25.1792 119.684 24.3831 119.286 23.786 118.557C23.1889 117.827 22.9899 116.964 23.1889 116.036C23.3879 115.04 23.9187 114.178 24.9138 113.448C25.9089 112.652 26.9041 112.32 27.9655 112.387C28.8943 112.453 29.6241 112.851 30.1548 113.515C30.6856 114.244 30.9509 115.041 30.7519 115.903C30.6192 116.964 30.0222 117.893 29.027 118.689ZM28.5626 118.092C29.5578 117.296 30.1548 116.5 30.2875 115.571C30.4202 114.841 30.2875 114.244 29.8895 113.714C29.4914 113.183 28.9607 112.918 28.1646 112.918C27.2358 112.918 26.307 113.249 25.3118 114.045C24.3167 114.775 23.786 115.638 23.5869 116.5C23.4543 117.23 23.5206 117.827 23.985 118.358C24.3831 118.888 24.9801 119.154 25.7099 119.154C26.705 119.22 27.6338 118.822 28.5626 118.092Z" fill="#97A1B7"/>
<path d="M34.202 123.997C33.5386 124.66 32.7425 125.125 31.88 125.191C30.7522 125.324 29.6907 124.926 28.7619 123.93L26.7053 121.874L26.838 121.741C27.1697 122.006 27.4351 122.139 27.6341 122.139C27.8331 122.139 28.0985 122.006 28.3639 121.675L32.0127 118.026C32.3444 117.694 32.4771 117.495 32.4771 117.23C32.4771 117.097 32.3444 116.832 32.079 116.5L32.2117 116.367L34.1357 118.291C34.9981 119.154 35.4625 120.083 35.5289 121.078C35.5289 122.139 35.0645 123.068 34.202 123.997ZM33.6049 123.4C34.401 122.604 34.8654 121.675 34.8654 120.812C34.8654 120.083 34.4674 119.22 33.5386 118.291C33.3396 118.092 33.2069 118.026 33.0742 118.092C33.0078 118.092 32.8752 118.159 32.7425 118.291L28.5629 122.471C28.3639 122.67 28.2975 122.803 28.3639 122.935C28.3639 123.002 28.4966 123.201 28.6956 123.333C30.2878 124.992 31.9464 124.992 33.6049 123.4Z" fill="#97A1B7"/>
<path d="M42.5611 127.579L42.3621 127.447C42.6275 126.982 42.6938 126.584 42.6275 126.385C42.5611 126.186 42.2957 125.854 41.8314 125.523L40.5708 124.594C40.4382 124.527 40.3055 124.461 40.2391 124.461C40.1728 124.461 40.0401 124.594 39.9738 124.726L38.3815 126.849L39.7747 127.845C40.1064 128.11 40.3718 128.176 40.5708 128.176C40.7035 128.11 40.9689 127.911 41.3006 127.579L41.4996 127.712L39.9074 129.835L39.7084 129.702C39.9738 129.238 40.1064 128.972 40.0401 128.773C40.0401 128.641 39.8411 128.442 39.5094 128.176L38.1825 127.115L36.6566 129.171C36.3913 129.503 36.3249 129.768 36.3249 130.034C36.3913 130.233 36.524 130.432 36.8557 130.697L36.723 130.896L34.5337 129.238L34.6664 129.039C34.9981 129.238 35.3298 129.37 35.5288 129.304C35.7279 129.238 35.9932 129.039 36.2586 128.641L39.244 124.66C39.5094 124.328 39.6421 123.997 39.5757 123.798C39.5094 123.665 39.3767 123.466 39.045 123.201L39.1777 123.002L43.4899 126.252L42.5611 127.579Z" fill="#97A1B7"/>
<path d="M47.2714 133.152C46.6743 134.213 45.8782 134.877 44.9494 135.209C44.0206 135.474 43.2245 135.408 42.362 134.943C41.5659 134.479 41.1015 133.749 40.9025 132.82C40.7035 131.825 40.9688 130.83 41.5659 129.769C42.2293 128.707 43.0255 127.977 44.0206 127.712C44.883 127.447 45.7455 127.579 46.4753 128.044C47.2714 128.508 47.7358 129.171 47.9348 130.1C48.2002 131.029 47.9348 132.024 47.2714 133.152ZM46.6743 132.754C47.3377 131.692 47.5367 130.697 47.404 129.835C47.2714 129.105 46.9396 128.574 46.4089 128.243C45.8782 127.911 45.2148 127.845 44.5513 128.11C43.6889 128.375 42.9591 129.105 42.2957 130.167C41.6323 131.228 41.4332 132.157 41.5659 133.086C41.6986 133.815 42.0303 134.346 42.5611 134.678C43.1581 135.01 43.7552 135.076 44.485 134.811C45.2811 134.479 46.0109 133.815 46.6743 132.754Z" fill="#97A1B7"/>
<path d="M54.0381 136.27C53.5074 137.398 52.844 138.128 51.9815 138.592C51.1191 138.99 50.2566 138.99 49.3942 138.592C48.5317 138.194 48.001 137.531 47.7356 136.668C47.4702 135.739 47.5366 134.678 48.0673 133.616C48.598 132.489 49.3278 131.692 50.2566 131.294C51.1191 130.963 51.9152 130.963 52.7113 131.294C53.5074 131.692 54.1045 132.29 54.3698 133.152C54.7015 134.014 54.5689 135.076 54.0381 136.27ZM53.3747 135.938C53.9054 134.81 54.0381 133.815 53.7728 132.953C53.5737 132.223 53.1757 131.759 52.5786 131.493C51.9815 131.228 51.3844 131.228 50.721 131.56C49.9249 131.958 49.2615 132.688 48.7307 133.882C48.2 135.01 48.0673 136.005 48.3327 136.867C48.5317 137.597 48.9298 138.061 49.5268 138.327C50.1239 138.592 50.7873 138.592 51.4508 138.26C52.2469 137.796 52.9103 137.066 53.3747 135.938Z" fill="#97A1B7"/>
<path d="M61.0705 138.592C60.8052 139.521 60.2744 140.251 59.5447 140.715C58.6159 141.378 57.488 141.511 56.1612 141.047L53.4412 140.184L53.5075 139.985C53.9056 140.052 54.1709 140.052 54.37 139.985C54.569 139.919 54.7017 139.653 54.8343 139.255L56.3602 134.346C56.4929 133.948 56.4929 133.616 56.4266 133.484C56.3602 133.351 56.0949 133.152 55.6968 133.019L55.7631 132.82L58.3505 133.616C59.5447 134.014 60.4071 134.611 60.8715 135.408C61.4022 136.336 61.4686 137.331 61.0705 138.592ZM60.2744 138.327C60.6061 137.199 60.6061 136.27 60.2081 135.408C59.8764 134.744 59.0803 134.213 57.8861 133.815C57.6207 133.749 57.488 133.749 57.3554 133.815C57.289 133.882 57.2227 133.948 57.1563 134.147L55.3651 139.786C55.2987 139.985 55.2987 140.184 55.3651 140.317C55.4314 140.383 55.5641 140.45 55.8295 140.582C58.0851 141.312 59.611 140.516 60.2744 138.327Z" fill="#97A1B7"/>
<path d="M70.1594 142.042C70.0931 142.506 69.894 142.838 69.6287 143.17C69.1643 143.7 68.4345 143.833 67.4394 143.7L64.0559 143.17V142.971C64.5203 143.037 64.7857 142.971 64.9847 142.838C65.1837 142.705 65.2501 142.44 65.3164 141.975L66.1125 136.867C66.1789 136.469 66.1125 136.137 65.9798 136.005C65.8471 135.872 65.5818 135.806 65.1174 135.673V135.474L67.9038 135.872C69.6287 136.137 70.4248 136.933 70.2257 138.194C70.0931 139.056 69.496 139.521 68.4345 139.653L68.6335 139.72C69.894 140.251 70.3584 140.98 70.1594 142.042ZM69.3633 141.843C69.496 141.047 69.1643 140.383 68.3018 139.985C67.9701 139.853 67.373 139.653 66.4442 139.521L65.9798 142.506C65.9135 142.772 66.0462 142.904 66.2452 143.037C66.3779 143.103 66.5769 143.17 66.9086 143.17C68.3682 143.501 69.2306 143.037 69.3633 141.843ZM69.695 138.26C69.894 137.132 69.1643 136.469 67.7047 136.27C67.4394 136.204 67.2403 136.204 67.2403 136.204C67.1077 136.204 67.0413 136.204 66.975 136.27C66.975 136.27 66.9086 136.403 66.9086 136.469L66.5106 139.189L67.7047 139.388C68.1691 139.454 68.5008 139.454 68.7662 139.454C69.297 139.255 69.6287 138.857 69.695 138.26Z" fill="#97A1B7"/>
<path d="M78.1205 144.496L75.5995 144.43V144.231C75.8648 144.231 76.0639 144.231 76.1966 144.165C76.3956 144.098 76.4619 143.966 76.4619 143.7C76.4619 143.501 76.3956 143.302 76.3292 142.904L75.9975 141.843L73.0785 141.71L72.4814 143.037C72.415 143.17 72.415 143.302 72.3487 143.501C72.3487 143.7 72.415 143.899 72.6141 143.966C72.6804 144.032 72.8131 144.032 73.0785 144.098V144.297L71.1545 144.231V144.032C71.2209 144.032 71.3536 144.032 71.4199 143.966C71.4863 143.966 71.6189 143.899 71.6853 143.767C71.8843 143.501 72.1497 142.971 72.5477 142.108L74.8697 136.403H74.9361L77.1917 143.103C77.3244 143.501 77.4571 143.833 77.6561 143.966C77.7888 144.032 77.9215 144.098 78.1868 144.165L78.1205 144.496ZM75.9312 141.445L74.737 137.531L73.2112 141.312L75.9312 141.445Z" fill="#97A1B7"/>
<path d="M85.4845 143.966L84.025 144.098L81.3049 140.582L80.4425 140.715L80.5752 142.971C80.5752 143.369 80.7079 143.7 80.8405 143.833C80.9732 143.966 81.3049 144.032 81.703 144.098V144.297L78.983 144.497V144.297C79.381 144.231 79.6464 144.098 79.7791 143.899C79.9117 143.7 79.9117 143.369 79.9117 142.904L79.58 138.128C79.58 137.663 79.4474 137.398 79.3147 137.199C79.182 137.066 78.9166 137 78.5186 137V136.801L81.3049 136.602C81.9684 136.535 82.4991 136.602 82.9635 136.801C83.6269 137.066 83.9586 137.663 84.025 138.393C84.0913 139.056 83.8923 139.587 83.3615 139.919C83.0962 140.118 82.6981 140.317 82.1674 140.45L84.4894 143.435C84.6221 143.634 84.9538 143.767 85.4845 143.767V143.966ZM83.1625 138.393C83.0962 137.663 82.7645 137.199 82.101 137C81.703 136.867 81.3049 136.867 80.8405 136.933C80.5752 137 80.3761 137 80.3098 137.066C80.1771 137.132 80.1771 137.265 80.1771 137.531L80.3761 140.383C81.2386 140.317 81.8357 140.184 82.1674 140.052C82.8972 139.654 83.2289 139.189 83.1625 138.393Z" fill="#97A1B7"/>
<path d="M96.0993 141.843L93.6446 142.374L93.5783 142.175C93.8437 142.108 94.0427 142.042 94.109 141.975C94.2417 141.843 94.3081 141.71 94.2417 141.511C94.1754 141.312 94.109 141.113 93.91 140.781L93.3129 139.853L90.4602 140.516L90.2612 141.909C90.2612 142.042 90.2612 142.241 90.2612 142.374C90.3275 142.573 90.4602 142.705 90.5929 142.772C90.6592 142.772 90.8583 142.772 91.0573 142.772L91.1236 142.971L89.2661 143.435L89.1997 143.236C89.266 143.17 89.3987 143.17 89.4651 143.103C89.5314 143.037 89.5978 142.971 89.6641 142.904C89.7968 142.639 89.9295 142.042 90.0622 141.113L90.8583 135.01H90.9246L94.8388 140.914C95.1042 141.312 95.3032 141.511 95.5022 141.644C95.6349 141.71 95.8339 141.71 96.0993 141.71V141.843ZM93.1139 139.521L90.9246 136.071L90.4602 140.118L93.1139 139.521Z" fill="#97A1B7"/>
<path d="M100.942 132.157C100.611 132.356 100.412 132.489 100.345 132.621C100.279 132.82 100.345 133.218 100.544 133.815L102.667 139.653L95.9666 135.01L95.9003 135.076L97.4925 139.521C97.6915 140.118 97.8905 140.45 98.1559 140.582C98.3549 140.715 98.6866 140.781 99.0183 140.649L99.0847 140.848L96.8954 141.644L96.829 141.445C97.2271 141.246 97.4261 140.98 97.4261 140.649C97.4261 140.516 97.2934 140.184 97.0944 139.653L95.3695 134.811C95.1041 134.611 94.9051 134.479 94.7724 134.479C94.7061 134.479 94.5734 134.479 94.308 134.545L94.2417 134.346L95.6349 133.882L101.805 138.194L100.279 133.948C100.08 133.351 99.8144 133.019 99.6154 132.887C99.4827 132.82 99.2174 132.82 98.753 132.953L98.6866 132.754L100.876 131.958L100.942 132.157Z" fill="#97A1B7"/>
<path d="M108.704 132.422C109.169 133.285 109.301 134.147 109.102 135.01C108.903 136.137 108.174 137 106.913 137.597L104.326 138.857L104.259 138.658C104.591 138.459 104.857 138.26 104.923 138.061C104.989 137.862 104.923 137.597 104.724 137.199L102.402 132.621C102.203 132.223 102.004 132.024 101.805 131.958C101.672 131.891 101.34 131.958 100.942 132.09L100.876 131.891L103.331 130.697C104.458 130.167 105.454 129.968 106.382 130.299C107.378 130.631 108.107 131.294 108.704 132.422ZM107.908 132.82C107.378 131.759 106.714 131.095 105.852 130.83C105.122 130.565 104.193 130.764 103.065 131.294C102.866 131.427 102.734 131.493 102.734 131.626C102.734 131.692 102.734 131.825 102.866 132.024L105.52 137.332C105.653 137.531 105.719 137.663 105.852 137.663C105.984 137.663 106.117 137.597 106.382 137.531C108.439 136.469 108.97 134.877 107.908 132.82Z" fill="#97A1B7"/>
<path d="M118.257 129.105C118.257 129.437 118.257 129.768 118.125 130.233C117.859 130.896 117.461 131.493 116.864 131.891C116.135 132.422 115.272 132.621 114.41 132.489C113.414 132.29 112.486 131.692 111.756 130.565C111.026 129.569 110.761 128.508 110.893 127.513C111.026 126.584 111.491 125.854 112.22 125.257C112.552 125.058 112.884 124.859 113.282 124.726C113.68 124.594 113.879 124.527 113.945 124.527C114.078 124.395 114.144 124.262 114.012 123.997L114.211 123.798L115.736 125.788L115.537 125.921C114.41 124.925 113.348 124.726 112.419 125.39C112.154 125.589 111.889 125.854 111.69 126.12C111.491 126.451 111.358 126.783 111.292 127.115C111.225 127.977 111.557 128.972 112.287 130.034C112.95 131.029 113.746 131.56 114.675 131.759C115.471 131.891 116.135 131.759 116.798 131.294C117.528 130.764 117.926 130.034 117.992 128.972L118.257 129.105Z" fill="#97A1B7"/>
<path d="M122.371 122.073C123.167 123.002 123.565 123.93 123.631 124.925C123.631 125.854 123.3 126.65 122.57 127.314C121.84 127.911 121.044 128.176 120.115 128.044C119.12 127.911 118.258 127.38 117.461 126.518C116.599 125.589 116.201 124.594 116.201 123.599C116.201 122.67 116.533 121.94 117.196 121.343C117.859 120.746 118.656 120.481 119.584 120.547C120.58 120.613 121.508 121.144 122.371 122.073ZM121.774 122.604C120.911 121.675 120.049 121.144 119.186 121.011C118.457 120.945 117.859 121.078 117.329 121.542C116.864 121.94 116.599 122.537 116.665 123.267C116.665 124.196 117.13 125.125 117.926 126.053C118.722 126.982 119.584 127.513 120.447 127.646C121.177 127.778 121.774 127.579 122.304 127.181C122.769 126.717 123.034 126.12 123.034 125.39C123.034 124.395 122.636 123.466 121.774 122.604Z" fill="#97A1B7"/>
<path d="M124.693 116.168L124.56 116.367C124.096 116.102 123.764 115.969 123.565 115.969C123.366 116.036 123.034 116.235 122.636 116.699L121.575 117.827C121.442 117.96 121.442 118.026 121.442 118.159C121.442 118.225 121.508 118.358 121.641 118.424L123.631 120.215L124.759 118.955C125.025 118.623 125.157 118.424 125.157 118.225C125.157 118.092 124.958 117.827 124.627 117.429L124.826 117.23L126.75 119.021L126.55 119.22C126.152 118.955 125.887 118.756 125.688 118.756C125.555 118.756 125.29 118.955 125.025 119.22L123.897 120.481L125.821 122.205C126.152 122.471 126.418 122.604 126.617 122.604C126.816 122.604 127.015 122.405 127.347 122.139L127.479 122.272L125.622 124.328L125.489 124.196C125.754 123.864 125.887 123.599 125.821 123.4C125.821 123.201 125.622 122.935 125.29 122.604L121.575 119.22C121.243 118.888 120.978 118.756 120.712 118.822C120.58 118.822 120.381 119.021 120.049 119.286L119.916 119.154L123.565 115.173L124.693 116.168Z" fill="#97A1B7"/>
<path d="M128.076 111.723L127.944 111.922C127.479 111.657 127.081 111.591 126.882 111.657C126.683 111.723 126.351 111.989 126.02 112.453L125.091 113.647C125.024 113.78 124.958 113.913 124.958 113.979C124.958 114.045 125.091 114.178 125.223 114.244L127.346 115.903L128.408 114.576C128.673 114.244 128.74 113.979 128.74 113.78C128.673 113.647 128.474 113.382 128.143 113.05L128.275 112.851L130.332 114.443L130.199 114.642C129.801 114.377 129.469 114.244 129.27 114.244C129.138 114.244 128.872 114.443 128.673 114.775L127.612 116.102L129.668 117.628C130 117.893 130.266 117.96 130.531 117.96C130.73 117.893 130.929 117.761 131.194 117.429L131.393 117.562L129.735 119.751L129.536 119.618C129.735 119.286 129.867 118.955 129.801 118.756C129.801 118.557 129.536 118.291 129.204 118.026L125.223 114.974C124.892 114.709 124.56 114.576 124.361 114.642C124.228 114.709 124.029 114.841 123.764 115.107L123.565 114.974L126.816 110.728L128.076 111.723Z" fill="#97A1B7"/>
<path d="M134.91 108.937L136.303 110.33L133.384 114.974L133.185 114.841C133.384 114.51 133.45 114.244 133.384 114.045C133.317 113.78 133.118 113.581 132.787 113.382L128.408 110.662C128.01 110.397 127.745 110.33 127.479 110.397C127.347 110.463 127.148 110.596 126.882 110.927L126.683 110.795L129.536 106.217L130.863 107.013L130.73 107.212C130.199 107.013 129.868 106.947 129.669 107.013C129.469 107.079 129.204 107.411 128.872 107.876L128.076 109.136C127.944 109.269 127.944 109.401 127.944 109.401C127.944 109.468 128.01 109.6 128.209 109.667L130.531 111.126L131.46 109.667C131.725 109.269 131.791 109.003 131.725 108.804C131.659 108.605 131.46 108.406 131.128 108.141L131.261 107.942L133.516 109.335L133.384 109.534C132.919 109.335 132.654 109.269 132.455 109.335C132.256 109.401 132.057 109.6 131.791 109.998L130.863 111.458L133.317 112.984C133.516 113.117 133.715 113.117 133.848 112.984C133.981 112.851 134.246 112.453 134.711 111.79C135.042 111.259 135.241 110.795 135.175 110.397C135.175 109.998 134.976 109.6 134.578 109.07L134.91 108.937Z" fill="#97A1B7"/>
<path d="M137.829 103.099L139.354 104.359L136.9 109.269L136.701 109.202C136.833 108.871 136.9 108.605 136.833 108.406C136.767 108.207 136.568 107.942 136.17 107.743L131.526 105.487C131.128 105.288 130.796 105.222 130.597 105.355C130.465 105.421 130.265 105.62 130.066 105.952L129.867 105.885L132.256 101.042L133.715 101.706L133.649 101.905C133.118 101.772 132.786 101.706 132.587 101.838C132.388 101.971 132.123 102.236 131.858 102.767L131.194 104.094C131.128 104.293 131.062 104.359 131.062 104.359C131.062 104.426 131.128 104.492 131.327 104.625L133.782 105.819L134.578 104.293C134.777 103.895 134.843 103.563 134.777 103.364C134.71 103.232 134.511 102.966 134.113 102.767L134.18 102.568L136.502 103.762L136.435 103.961C135.971 103.829 135.639 103.762 135.507 103.829C135.308 103.895 135.108 104.094 134.909 104.492L134.113 106.018L136.767 107.345C136.966 107.477 137.165 107.477 137.298 107.345C137.43 107.212 137.696 106.814 138.028 106.084C138.293 105.487 138.426 105.023 138.359 104.691C138.293 104.359 138.094 103.895 137.629 103.431L137.829 103.099Z" fill="#97A1B7"/>
<path d="M30.8184 85.4518H0.5V67.7384H30.8184L24.1842 76.4956L30.8184 85.4518Z" fill="#97A1B7"/>
<path d="M120.181 85.4518H150.5V67.7384H120.181L126.816 76.4956L120.181 85.4518Z" fill="#97A1B7"/>
<path d="M3.94979 77.7561C4.08247 78.4196 4.61321 78.4859 5.01127 78.4859C5.40932 78.4859 5.94006 78.3532 5.94006 77.8888C5.94006 76.8937 3.08734 77.5571 3.08734 75.6995C3.08734 74.7044 4.01613 74.24 4.87858 74.24C5.87372 74.24 6.80251 74.7044 6.80251 75.7659L5.80737 75.6332C5.67469 75.1024 5.21029 75.0361 4.87858 75.0361C4.54687 75.0361 4.14882 75.1688 4.14882 75.5668C4.14882 75.8985 4.34784 76.0312 5.60835 76.2966C5.94006 76.3629 7.06788 76.6283 7.06788 77.6898C7.06788 78.5522 6.40445 79.2156 5.07761 79.2156C4.01613 79.2156 3.021 78.6849 3.021 77.4907L3.94979 77.7561Z" fill="#BBC5DA"/>
<path d="M7.59863 74.3727H8.66011V79.2156H7.59863V74.3727Z" fill="#BBC5DA"/>
<path d="M10.3851 75.8322V79.1493H9.4563V74.3063H10.6505L12.7734 77.2917V74.3063H13.7022V79.1493H12.7734L10.3851 75.8322Z" fill="#BBC5DA"/>
<path d="M16.754 79.2156C15.4271 79.2156 14.2993 78.1542 14.2993 76.761C14.2993 75.4341 15.3608 74.3063 16.754 74.3063C17.6828 74.3063 18.4789 74.837 18.8769 75.5668C18.4789 75.7658 18.4125 75.8322 17.9481 76.0312C17.6828 75.6332 17.2847 75.3678 16.754 75.3678C15.9579 75.3678 15.2945 76.0312 15.2945 76.8273C15.2945 77.6234 15.9579 78.2869 16.754 78.2869C17.2847 78.2869 17.7491 78.0215 18.0145 77.5571C18.4789 77.8224 18.4789 77.8224 18.9433 78.0215C18.4789 78.6849 17.6828 79.2156 16.754 79.2156Z" fill="#BBC5DA"/>
<path d="M20.4689 78.2869H23.189V79.1493H19.4075V74.3063H22.9236V75.1688H20.4026V76.2302H22.5919V77.159H20.4026V78.2869H20.4689Z" fill="#BBC5DA"/>
<path d="M131.924 74.3063V79.083H130.995V75.2351H130.266V74.638L131.924 74.3063Z" fill="#BBC5DA"/>
<path d="M135.839 75.1024C135.573 75.6995 134.777 77.2254 134.114 79.083H132.986C133.716 77.2917 134.512 75.6995 134.711 75.2351H132.455V74.3727H135.839V75.1024Z" fill="#BBC5DA"/>
<path d="M137.829 79.2156C136.568 79.2156 136.17 78.4196 136.17 77.7561C136.17 77.4908 136.17 76.8936 136.9 76.5619C136.502 76.3629 136.303 76.0976 136.303 75.6332C136.303 74.8371 136.966 74.3063 137.829 74.3063C138.824 74.3063 139.355 74.9034 139.355 75.5668C139.355 75.9649 139.156 76.2966 138.824 76.5619C139.288 76.8273 139.554 77.0927 139.554 77.6898C139.487 78.2868 139.089 79.2156 137.829 79.2156ZM137.829 76.96C137.497 76.96 137.165 77.159 137.165 77.6898C137.165 78.1542 137.431 78.4859 137.829 78.4859C138.293 78.4859 138.492 78.0878 138.492 77.7561C138.492 77.3581 138.359 76.96 137.829 76.96ZM138.426 75.6332C138.426 75.2351 138.16 75.0361 137.895 75.0361C137.431 75.0361 137.232 75.3015 137.232 75.6332C137.232 75.8985 137.431 76.2302 137.829 76.2302C138.227 76.2302 138.426 75.9649 138.426 75.6332Z" fill="#BBC5DA"/>
<path d="M142.141 75.5005C142.141 75.2351 141.942 75.0361 141.61 75.0361C141.013 75.0361 140.88 75.7658 140.814 76.3629C140.947 76.1639 141.146 75.9649 141.743 75.9649C142.738 75.9649 143.202 76.761 143.202 77.4244C143.202 78.4859 142.539 79.1493 141.61 79.1493C140.151 79.1493 139.885 77.9552 139.885 76.761C139.885 75.8322 140.018 74.24 141.676 74.24C141.876 74.24 142.406 74.3063 142.672 74.5717C142.937 74.837 143.003 74.9697 143.136 75.5005H142.141ZM141.544 76.761C141.212 76.761 140.814 76.96 140.814 77.5571C140.814 78.0878 141.079 78.4196 141.544 78.4196C141.876 78.4196 142.207 78.1542 142.207 77.4907C142.274 76.96 141.876 76.761 141.544 76.761Z" fill="#BBC5DA"/>
</svg>
