<svg width="758" height="531" viewBox="0 0 758 531" fill="none" xmlns="http://www.w3.org/2000/svg">
<path fill-rule="evenodd" clip-rule="evenodd" d="M706.61 113.486C657.735 62.5846 571.878 44.0076 509.21 77.2604C493.018 85.8059 478.226 97.6952 460.135 101.782C434.048 107.727 406.662 96.209 385.173 80.6043C363.683 64.9996 345.892 45.215 323.903 30.2605C272.929 -4.4785 202.565 -8.56543 145.293 14.1914C88.1223 37.0412 44.0445 84.4126 20.3565 138.843C-20.7228 233.958 1.66589 351.55 75.8285 428.088C149.991 504.625 319.406 551.811 423.053 521.251L411.359 525.06C482.723 515.4 553.688 496.823 614.857 461.155C676.026 425.487 727 371.521 747.69 306.129C768.479 240.924 755.486 164.387 706.61 113.486Z" fill="#32B768" fill-opacity="0.12"/>
<g filter="url(#filter0_i)">
<path d="M491.409 348.673C487.011 352.946 471.319 359.262 466.321 358.519C461.324 357.869 453.028 358.055 452.029 357.776C450.829 357.776 399.755 386.756 366.272 396.323C355.977 399.296 347.381 400.41 342.384 398.274C307.501 383.319 269.521 312.819 261.225 294.15C246.332 260.618 250.63 232.66 255.128 231.359C271.02 226.808 298.006 256.996 313.498 276.78C323.793 289.97 367.171 340.685 368.371 341.521C368.871 341.893 371.069 341.8 374.268 341.521C392.758 339.849 447.431 329.539 452.928 328.889C461.824 327.681 473.318 329.91 482.413 330.653C491.709 331.397 493.708 346.444 491.409 348.673Z" fill="#EBADA0"/>
<path d="M366.372 396.417C356.077 399.389 347.481 400.504 342.484 398.368C307.601 383.413 269.621 312.913 261.325 294.243C246.432 260.712 250.73 232.753 255.228 231.453C271.12 226.902 298.106 257.089 313.598 276.874C323.893 290.064 367.271 340.779 368.471 341.615C368.97 341.986 371.169 341.894 374.368 341.615C367.871 358.984 365.972 377.933 366.372 396.417Z" fill="#C47C8A"/>
<path d="M368.571 338.827C368.471 339.663 367.571 341.149 365.972 343.472C365.372 344.308 364.773 345.143 364.073 346.165C364.073 346.258 363.973 346.258 363.973 346.351C363.073 347.559 362.174 348.952 361.074 350.438C360.575 351.181 359.975 351.924 359.475 352.76C359.275 352.946 359.175 353.225 359.075 353.41C357.676 355.361 356.277 357.59 354.678 360.005C354.478 360.377 354.178 360.748 353.978 361.12C353.778 361.491 353.478 361.863 353.278 362.141C353.178 362.327 353.078 362.513 352.979 362.699C351.679 364.742 350.38 366.972 348.981 369.294C348.881 369.479 348.781 369.758 348.581 369.944C347.781 371.337 346.982 372.73 346.182 374.124C345.782 374.867 345.282 375.703 344.883 376.539C344.383 377.375 343.883 378.304 343.483 379.232C343.483 379.325 343.383 379.418 343.283 379.511C342.184 381.554 341.184 383.598 340.085 385.734C339.985 385.92 339.885 386.199 339.785 386.385C338.786 388.521 337.686 390.657 336.687 392.979C336.487 393.351 336.287 393.722 336.187 394.094C335.987 394.558 335.687 395.116 335.487 395.58C335.487 395.58 335.487 395.58 335.487 395.673C334.888 397.066 334.288 398.367 333.688 399.76C333.488 400.132 331.489 399.388 328.491 397.624C327.591 397.066 326.592 396.509 325.592 395.859C325.492 395.766 325.392 395.766 325.292 395.673C324.093 394.837 322.794 394.001 321.594 392.979C320.595 392.236 319.595 391.4 318.496 390.471C318.296 390.286 317.996 390.1 317.796 389.914C316.497 388.8 315.298 387.592 314.098 386.385C313.898 386.199 313.698 385.92 313.498 385.734C312.599 384.805 311.599 383.784 310.8 382.669C310.1 381.74 309.401 380.904 308.701 379.975C308.501 379.697 308.301 379.418 308.101 379.139C308.001 379.047 308.001 378.954 307.901 378.861C307.302 378.118 306.802 377.282 306.202 376.446C304.703 374.402 303.204 372.173 301.704 369.851C301.504 369.665 301.405 369.387 301.305 369.201C301.105 368.922 301.005 368.736 300.805 368.551C300.605 368.179 300.305 367.9 300.105 367.529C299.006 365.95 298.006 364.278 296.907 362.606C296.307 361.677 295.707 360.841 295.208 359.912C294.508 358.798 293.808 357.776 293.109 356.661C292.409 355.547 291.709 354.432 291.01 353.317C290.91 353.132 290.71 352.853 290.61 352.667C290.51 352.481 290.31 352.296 290.21 352.017C289.011 350.066 287.711 348.116 286.512 346.072C285.912 345.144 285.413 344.308 284.913 343.379C284.313 342.357 283.713 341.428 283.114 340.406C282.914 340.035 282.614 339.663 282.414 339.292C281.914 338.456 281.415 337.62 280.915 336.784C280.815 336.598 280.615 336.319 280.515 336.134C279.216 333.997 277.916 331.768 276.717 329.539C276.217 328.703 275.717 327.867 275.218 327.031C275.218 326.938 275.118 326.938 275.118 326.938C274.118 325.266 273.219 323.501 272.319 321.829C272.019 321.365 271.819 320.808 271.52 320.343C271.42 320.157 271.32 319.879 271.12 319.693C269.92 317.464 268.821 315.327 267.622 313.098C267.122 312.169 266.722 311.333 266.322 310.404C265.922 309.661 265.523 308.918 265.123 308.082C264.923 307.618 264.623 307.153 264.423 306.689C263.923 305.667 263.424 304.738 263.024 303.81C262.924 303.624 262.824 303.345 262.724 303.159C261.625 300.93 260.625 298.701 259.726 296.565C259.326 295.636 258.926 294.8 258.626 293.871C258.126 292.849 257.727 291.827 257.327 290.899C256.827 289.691 256.327 288.484 255.927 287.276C255.828 287.09 255.728 286.812 255.728 286.626C255.228 285.418 254.828 284.304 254.528 283.189C254.328 282.818 254.228 282.446 254.128 282.074C253.928 281.424 253.629 280.681 253.429 280.031C253.129 279.195 252.929 278.266 252.629 277.337C252.029 275.294 251.53 273.065 251.03 270.743C250.93 270.557 250.93 270.278 250.93 270.092C250.43 267.956 250.13 265.727 249.731 263.497C249.531 262.569 249.431 261.733 249.331 260.804C249.031 258.575 248.831 256.438 248.631 254.302C248.631 254.116 248.531 253.837 248.531 253.652C248.331 251.422 248.331 249.193 248.331 247.057C248.331 246.128 248.431 245.199 248.431 244.363C248.531 242.041 248.831 239.812 249.331 237.861C249.331 237.675 249.431 237.397 249.531 237.211C250.13 234.61 251.03 232.381 252.229 230.616C252.729 229.966 253.229 229.316 253.829 228.851C254.028 228.666 254.128 228.573 254.328 228.48C254.628 228.201 255.028 228.015 255.428 227.922C255.927 227.737 256.527 227.644 257.127 227.644C257.827 227.644 258.626 227.737 259.426 227.922C260.825 228.201 262.424 228.758 264.123 229.594C264.323 229.687 264.623 229.78 264.823 229.966C265.323 230.152 265.822 230.43 266.222 230.709C268.021 231.638 269.92 232.753 271.819 234.053C272.819 234.703 273.718 235.353 274.718 236.003C275.318 236.375 275.917 236.839 276.517 237.304C276.817 237.49 277.117 237.768 277.417 237.954C278.916 239.069 280.415 240.183 281.814 241.391C282.014 241.577 282.314 241.762 282.514 241.948C283.514 242.784 284.613 243.62 285.613 244.549C286.712 245.478 287.711 246.314 288.711 247.243C289.011 247.521 289.311 247.8 289.61 247.986C290.61 248.915 291.51 249.75 292.509 250.586C293.708 251.608 294.808 252.723 295.907 253.745C296.107 253.93 296.407 254.209 296.607 254.395C297.606 255.416 298.606 256.438 299.605 257.367C299.805 257.646 300.105 257.831 300.305 258.017C301.305 259.039 302.204 259.968 303.104 260.897C303.404 261.268 303.803 261.64 304.103 261.918C304.603 262.476 305.103 262.94 305.602 263.59C306.202 264.241 306.702 264.891 307.402 265.541C308.301 266.563 309.301 267.584 310.3 268.699C310.7 269.163 311.2 269.628 311.599 270.185C311.799 270.371 311.999 270.65 312.199 270.835C313.798 272.6 315.497 274.551 317.396 276.594C317.596 276.873 317.896 277.152 318.096 277.337C318.896 278.173 319.695 279.102 320.495 280.031C321.994 281.796 323.593 283.561 325.193 285.418C325.592 285.79 325.892 286.254 326.292 286.626C326.492 286.812 326.692 287.09 326.892 287.276C327.291 287.74 327.791 288.298 328.191 288.762C329.69 290.434 331.19 292.199 332.589 293.871C333.388 294.8 334.088 295.636 334.888 296.565C334.988 296.657 335.088 296.843 335.188 296.936C335.387 297.215 335.687 297.493 335.887 297.772C337.486 299.63 338.986 301.395 340.485 303.159C340.685 303.345 340.885 303.624 341.085 303.81C341.684 304.553 342.384 305.296 342.984 306.039C343.983 307.154 344.883 308.361 345.882 309.476C346.182 309.847 346.482 310.126 346.682 310.497C347.381 311.426 348.181 312.262 348.881 313.191C350.28 314.863 351.579 316.442 352.879 318.021C353.078 318.3 353.378 318.578 353.578 318.857C353.878 319.136 354.078 319.507 354.378 319.786C354.578 319.972 354.778 320.25 354.878 320.436C356.777 322.758 358.576 324.987 360.175 327.031C360.375 327.31 360.575 327.495 360.675 327.681C361.274 328.424 361.774 329.074 362.174 329.632C362.674 330.282 363.073 330.839 363.573 331.397C364.972 333.347 366.172 334.926 366.971 336.134C367.071 336.412 367.271 336.598 367.371 336.784C368.271 337.898 368.571 338.549 368.571 338.827Z" fill="#32B768"/>
<g opacity="0.5">
<path opacity="0.5" d="M258.026 228.388V291.271C257.527 290.064 257.027 288.856 256.627 287.649C256.527 287.463 256.427 287.184 256.427 286.998C255.927 285.791 255.528 284.676 255.228 283.562V229.038C255.528 228.759 255.927 228.574 256.327 228.481C256.827 228.481 257.427 228.388 258.026 228.388Z" fill="#298A51"/>
<path opacity="0.5" d="M265.723 230.523V308.361C265.523 307.897 265.223 307.432 265.023 306.968V230.152C265.323 230.337 265.523 230.43 265.723 230.523Z" fill="#298A51"/>
<path opacity="0.5" d="M272.819 234.61C273.818 235.26 274.718 235.911 275.717 236.561V327.124C275.717 327.031 275.618 327.031 275.618 327.031C274.618 325.359 273.718 323.594 272.819 321.922V234.61Z" fill="#298A51"/>
<path opacity="0.5" d="M282.714 241.948C282.914 242.134 283.214 242.32 283.414 242.505V340.499C283.214 340.128 282.914 339.756 282.714 339.385V241.948Z" fill="#298A51"/>
<path opacity="0.5" d="M293.309 251.051V356.568C292.609 355.454 291.909 354.339 291.21 353.225C291.11 353.039 290.91 352.76 290.81 352.574C290.71 352.389 290.51 352.203 290.41 351.924V248.45C291.41 249.379 292.409 250.215 293.309 251.051Z" fill="#298A51"/>
<path opacity="0.5" d="M301.105 258.482V368.365C300.905 367.993 300.605 367.715 300.405 367.343V257.831C300.605 258.017 300.805 258.296 301.105 258.482Z" fill="#298A51"/>
<path opacity="0.5" d="M311 269.163V382.483C310.3 381.554 309.6 380.718 308.901 379.79C308.701 379.511 308.501 379.232 308.301 378.954H308.101V266.005C309.001 267.027 310 268.049 311 269.163Z" fill="#298A51"/>
<path opacity="0.5" d="M318.696 277.802V390.193C318.496 390.007 318.196 389.821 317.996 389.635V277.059C318.296 277.337 318.496 277.616 318.696 277.802Z" fill="#298A51"/>
<path opacity="0.5" d="M328.691 289.134V397.345C327.791 396.788 326.792 396.23 325.792 395.58V285.883C326.192 286.254 326.492 286.719 326.892 287.09C327.092 287.276 327.291 287.555 327.491 287.741C327.791 288.205 328.191 288.669 328.691 289.134Z" fill="#298A51"/>
<path opacity="0.5" d="M336.387 298.051V393.815C336.187 394.28 335.887 394.837 335.687 395.301V297.215C335.887 297.493 336.187 297.772 336.387 298.051Z" fill="#298A51"/>
<path opacity="0.5" d="M346.282 309.661V373.938C345.882 374.681 345.382 375.517 344.983 376.353C344.483 377.189 343.983 378.118 343.583 379.047C343.583 379.139 343.483 379.232 343.383 379.325V306.41C344.383 307.432 345.382 308.547 346.282 309.661Z" fill="#298A51"/>
<path opacity="0.5" d="M353.978 318.95V360.934C353.778 361.306 353.478 361.677 353.278 361.956V318.114C353.578 318.393 353.778 318.671 353.978 318.95Z" fill="#298A51"/>
<path opacity="0.5" d="M363.973 331.489V346.258C363.073 347.466 362.174 348.859 361.074 350.345V327.681C361.674 328.424 362.174 329.074 362.574 329.632C363.073 330.375 363.573 330.932 363.973 331.489Z" fill="#298A51"/>
</g>
<g opacity="0.5">
<path opacity="0.5" d="M267.222 231.266H253.129C253.629 230.616 254.128 229.966 254.728 229.501C254.928 229.316 255.028 229.223 255.228 229.13C255.528 228.851 255.927 228.666 256.327 228.573H260.425C261.824 228.851 263.424 229.409 265.123 230.245C265.323 230.337 265.623 230.43 265.822 230.616C266.222 230.802 266.722 230.988 267.222 231.266Z" fill="#298A51"/>
<path opacity="0.5" d="M278.316 238.512H250.23C250.23 238.326 250.33 238.047 250.43 237.861H277.517C277.716 238.047 278.016 238.233 278.316 238.512Z" fill="#298A51"/>
<path opacity="0.5" d="M286.512 245.013C287.611 245.942 288.611 246.778 289.61 247.707H249.331C249.331 246.778 249.431 245.849 249.431 245.013H286.512Z" fill="#298A51"/>
<path opacity="0.5" d="M297.407 254.86H249.531C249.531 254.674 249.431 254.395 249.431 254.209H296.707C297.007 254.488 297.207 254.674 297.407 254.86Z" fill="#298A51"/>
<path opacity="0.5" d="M306.402 264.055H250.53C250.33 263.126 250.23 262.29 250.13 261.361H303.903C304.203 261.733 304.603 262.104 304.903 262.383C305.303 262.94 305.802 263.497 306.402 264.055Z" fill="#298A51"/>
<path opacity="0.5" d="M312.899 271.301H251.83C251.73 271.115 251.73 270.836 251.73 270.65H312.399C312.499 270.836 312.699 271.115 312.899 271.301Z" fill="#298A51"/>
<path opacity="0.5" d="M321.095 280.495H254.128C253.829 279.66 253.629 278.731 253.329 277.802H318.696C319.495 278.731 320.295 279.567 321.095 280.495Z" fill="#298A51"/>
<path opacity="0.5" d="M327.391 287.648H256.627C256.527 287.462 256.427 287.183 256.427 286.997H326.892C326.992 287.276 327.192 287.462 327.391 287.648Z" fill="#298A51"/>
<path opacity="0.5" d="M335.387 296.936H260.425C260.025 296.007 259.626 295.171 259.326 294.242H333.188C333.888 295.171 334.588 296.007 335.387 296.936Z" fill="#298A51"/>
<path opacity="0.5" d="M341.584 304.089H263.724C263.624 303.903 263.524 303.624 263.424 303.438H340.985C341.184 303.717 341.384 303.903 341.584 304.089Z" fill="#298A51"/>
<path opacity="0.5" d="M349.38 313.284H268.221C267.722 312.355 267.322 311.519 266.922 310.59H347.181C347.881 311.612 348.581 312.448 349.38 313.284Z" fill="#298A51"/>
<path opacity="0.5" d="M355.277 320.53H272.019C271.919 320.344 271.819 320.065 271.62 319.879H354.678C354.978 320.065 355.177 320.251 355.277 320.53Z" fill="#298A51"/>
<path opacity="0.5" d="M362.574 329.725H277.117C276.617 328.889 276.117 328.053 275.618 327.217C275.618 327.124 275.518 327.124 275.518 327.124H360.475C360.675 327.402 360.875 327.588 360.975 327.774C361.674 328.424 362.174 329.074 362.574 329.725Z" fill="#298A51"/>
<path opacity="0.5" d="M367.771 336.878H281.315C281.215 336.692 281.015 336.413 280.915 336.227H367.371C367.471 336.506 367.571 336.692 367.771 336.878Z" fill="#298A51"/>
<path opacity="0.5" d="M365.972 343.472C365.372 344.308 364.773 345.143 364.073 346.165H286.812C286.212 345.236 285.712 344.4 285.213 343.472H365.972Z" fill="#298A51"/>
<path opacity="0.5" d="M359.475 352.667C359.275 352.853 359.175 353.132 359.075 353.318H291.31C291.21 353.132 291.01 352.853 290.91 352.667H359.475Z" fill="#298A51"/>
<path opacity="0.5" d="M354.678 359.912C354.478 360.284 354.178 360.655 353.978 361.027C353.778 361.398 353.478 361.77 353.278 362.049C353.178 362.234 353.078 362.42 352.979 362.606H297.107C296.507 361.677 295.907 360.841 295.408 359.912H354.678Z" fill="#298A51"/>
<path opacity="0.5" d="M349.081 369.108C348.981 369.294 348.881 369.573 348.681 369.759H301.904C301.704 369.573 301.604 369.294 301.504 369.108H349.081Z" fill="#298A51"/>
<path opacity="0.5" d="M344.983 376.26C344.483 377.096 343.983 378.025 343.583 378.954H308.101V378.675C307.501 377.932 307.002 377.096 306.402 376.26H344.983Z" fill="#298A51"/>
<path opacity="0.5" d="M340.285 385.456C340.185 385.642 340.085 385.921 339.985 386.107H314.298C314.098 385.921 313.898 385.642 313.698 385.456H340.285Z" fill="#298A51"/>
<path opacity="0.5" d="M336.887 392.701C336.687 393.072 336.487 393.444 336.387 393.815C336.187 394.28 335.887 394.837 335.687 395.301V395.394H325.492C324.293 394.558 322.994 393.722 321.794 392.701H336.887Z" fill="#298A51"/>
</g>
<path d="M363.073 327.031C360.675 327.681 336.787 352.017 332.989 358.055C329.191 364.092 315.397 389.171 316.697 392.422C318.496 396.788 327.891 398.831 331.489 400.41C337.786 403.104 344.883 406.819 349.88 403.475C351.479 402.454 350.88 387.035 355.277 370.873C356.977 364.556 371.969 341.428 372.569 339.199C373.368 336.877 367.271 325.823 363.073 327.031Z" fill="#298A51"/>
<path d="M632.338 312.541C617.145 319.414 598.755 321.644 582.263 324.616C573.267 326.288 564.172 327.774 555.077 329.074C550.979 329.725 546.781 330.282 542.683 330.839C540.184 331.211 536.186 332.325 533.588 331.489C532.988 331.304 532.588 330.839 532.588 330.189C532.588 330.003 532.588 329.91 532.588 329.725C532.588 328.331 575.966 319.972 589.459 306.503C596.356 299.63 602.853 288.019 597.655 278.731C594.557 273.157 587.36 271.857 581.263 272.972C574.867 274.086 567.67 280.31 573.367 283.375C574.067 282.446 575.866 283.003 575.366 284.211C573.867 286.997 566.871 289.598 563.672 285.511C558.575 279.009 564.472 268.978 569.969 265.355C584.462 255.788 612.648 254.302 621.243 272.507C627.54 268.885 635.236 271.207 637.535 277.709C643.532 273.343 651.128 279.381 651.928 286.069C653.427 297.865 642.932 307.711 632.338 312.541Z" fill="#F0E4D6"/>
<path d="M503.802 341.335L395.157 365.671L392.059 351.181L501.604 331.025L503.802 341.335Z" fill="#CA906A"/>
<path d="M646.031 304.367C646.031 304.367 646.53 334.276 635.136 336.319C623.742 338.456 574.367 347.558 574.367 347.558C574.367 347.558 524.992 356.661 513.598 358.798C502.203 360.934 490.409 333.068 490.409 333.068L646.031 304.367Z" fill="#ACB9A2"/>
<path d="M441.434 332.79C444.133 331.861 455.027 331.489 458.225 333.161C465.922 337.248 481.214 337.341 483.912 339.292C486.611 341.149 469.52 346.815 462.423 345.794C455.427 344.772 439.335 348.766 428.44 343.75C417.446 338.642 441.434 332.79 441.434 332.79Z" fill="#EBADA0"/>
<path d="M468.82 359.448C464.123 359.076 450.329 357.962 448.33 356.94C446.331 355.918 448.43 353.875 450.629 353.132C452.728 352.389 466.721 352.296 469.42 353.132C472.019 354.06 473.118 359.726 468.82 359.448Z" fill="#EBADA0"/>
<path d="M477.016 356.475C471.419 355.454 455.227 352.203 452.928 350.809C450.629 349.416 453.528 347.559 456.226 347.001C458.925 346.537 475.517 348.394 478.615 349.695C481.714 351.088 482.113 357.404 477.016 356.475Z" fill="#EBADA0"/>
<path d="M329.49 411.742C329.49 413.971 329.49 416.108 329.39 418.244C329.39 418.43 329.39 418.709 329.39 418.894C329.39 421.124 329.29 423.26 329.29 425.489C329.29 426.418 329.191 427.254 329.191 428.183C329.091 430.412 328.991 432.548 328.891 434.685C328.891 434.871 328.891 435.149 328.891 435.335C328.791 436.635 328.691 438.029 328.691 439.236C328.591 440.165 328.591 441.001 328.491 441.837C328.391 442.766 328.291 443.602 328.291 444.531C328.091 446.76 327.891 448.989 327.691 451.033C327.691 451.218 327.591 451.497 327.591 451.683C327.291 454.005 327.092 456.141 326.792 458.278C326.692 459.206 326.492 460.135 326.392 460.971C326.192 462.457 325.892 463.851 325.692 465.151C325.592 465.987 325.392 466.73 325.292 467.473C325.193 467.659 325.193 467.938 325.193 468.123C324.593 470.817 323.993 472.953 323.393 474.718C322.994 475.833 322.494 476.762 322.094 477.412C321.794 477.784 321.494 478.062 321.294 478.248H131.39C131.19 478.062 131.09 477.784 130.99 477.412C130.891 476.762 130.891 475.926 131.09 474.718C131.19 474.068 131.29 473.325 131.49 472.489C131.69 471.189 132.09 469.795 132.49 468.123C132.59 467.938 132.59 467.659 132.69 467.473C133.189 465.523 133.789 463.293 134.389 460.971C134.389 460.878 134.389 460.878 134.489 460.786C134.689 459.95 134.988 459.114 135.188 458.278C135.788 456.234 136.388 454.005 137.087 451.683C137.187 451.497 137.187 451.218 137.287 451.033C137.887 448.896 138.587 446.76 139.286 444.531C139.586 443.602 139.786 442.766 140.086 441.837C140.586 440.258 141.085 438.586 141.585 437.007C141.785 436.45 141.985 435.892 142.085 435.242C142.185 435.056 142.185 434.871 142.285 434.685C142.285 434.685 142.285 434.592 142.385 434.592C143.084 432.456 143.684 430.319 144.384 428.09C144.684 427.161 144.983 426.325 145.183 425.396C145.883 423.26 146.583 421.031 147.182 418.801C147.282 418.616 147.382 418.337 147.382 418.151C148.082 416.015 148.682 413.786 149.381 411.649V411.556C149.681 410.628 149.881 409.792 150.181 408.956C150.88 406.726 151.48 404.59 152.18 402.361C152.18 402.268 152.28 402.082 152.28 401.989C152.28 401.896 152.38 401.803 152.38 401.711C153.079 399.481 153.679 397.345 154.279 395.116C154.579 394.187 154.778 393.351 155.078 392.422C155.678 390.193 156.378 388.056 156.877 385.827C156.977 385.641 156.977 385.363 157.077 385.177C157.677 382.948 158.277 380.811 158.776 378.582C158.976 377.839 159.176 377.096 159.376 376.26C159.376 376.167 159.476 375.981 159.476 375.888C159.676 375.145 159.876 374.309 160.076 373.566C160.476 372.08 160.775 370.687 161.075 369.294C161.175 369.108 161.175 368.829 161.275 368.643C161.775 366.414 162.275 364.185 162.674 362.049C162.874 361.12 163.074 360.284 163.174 359.355C163.674 357.033 163.974 354.896 164.274 352.76C164.374 352.574 164.374 352.296 164.374 352.11C164.574 350.902 164.673 349.695 164.873 348.487C164.973 347.466 165.073 346.537 165.173 345.515C165.273 344.679 165.373 343.75 165.473 342.821C165.773 340.685 166.073 338.456 166.373 336.227C166.373 336.041 166.473 335.762 166.473 335.576C166.672 334.09 166.872 332.604 167.172 331.025C167.272 330.375 167.372 329.632 167.472 328.981C167.572 328.146 167.772 327.217 167.872 326.288C168.272 324.151 168.572 321.922 168.971 319.693C169.071 319.507 169.071 319.229 169.071 319.043C169.371 317.557 169.671 316.07 169.971 314.584C170.071 313.934 170.271 313.191 170.371 312.541C170.571 311.612 170.77 310.776 170.97 309.847C171.37 307.618 171.87 305.482 172.37 303.252C172.37 303.067 172.47 302.788 172.47 302.602C172.969 300.373 173.469 298.236 173.969 296.007C174.169 295.078 174.369 294.242 174.668 293.314C175.268 291.084 175.768 288.948 176.368 286.719C176.468 286.533 176.468 286.254 176.567 286.069C176.767 285.418 176.867 284.861 177.067 284.211C177.267 283.375 177.567 282.632 177.767 281.796C177.967 281.053 178.267 280.217 178.467 279.474C178.766 278.545 179.066 277.709 179.266 276.78C179.966 274.551 180.665 272.322 181.365 270.185C181.465 269.999 181.465 269.721 181.565 269.535C182.365 267.306 183.164 265.077 183.964 262.94L184.763 260.804C184.863 260.618 184.963 260.432 184.963 260.246C185.863 258.11 186.662 256.16 187.562 254.209C187.662 254.023 187.762 253.837 187.862 253.652C187.962 253.466 188.062 253.187 188.162 253.001C189.261 250.679 190.46 248.45 191.66 246.407C192.26 245.478 192.759 244.549 193.359 243.713C193.859 242.97 194.259 242.32 194.758 241.762C194.958 241.391 195.258 241.112 195.458 240.834C196.557 239.44 197.557 238.233 198.656 237.211C198.856 236.932 199.056 236.747 199.356 236.561L199.556 236.375C200.355 235.725 201.355 234.982 202.554 234.332C203.454 233.774 204.353 233.31 205.453 232.845C207.452 231.916 209.751 230.895 212.249 230.059C212.349 229.966 212.449 229.966 212.549 229.966C212.749 229.873 213.049 229.78 213.249 229.687C215.548 228.851 217.847 228.108 220.245 227.365H220.345C221.345 227.087 222.244 226.808 223.244 226.529C225.743 225.786 228.141 225.136 230.34 224.671C230.54 224.671 230.84 224.579 231.04 224.486C233.939 223.835 236.437 223.371 238.136 223.185C238.536 223.092 238.836 223.092 239.136 223.092C239.736 223.092 240.335 223.092 241.035 223.185C243.234 223.278 245.633 223.743 248.131 224.393C248.331 224.486 248.631 224.486 248.831 224.579C251.13 225.229 253.529 226.065 255.927 226.994C256.327 227.179 256.627 227.272 257.027 227.458C257.627 227.737 258.226 228.015 258.826 228.294C260.125 228.944 261.525 229.502 262.824 230.152C263.923 230.709 264.923 231.266 265.922 231.824C266.122 231.917 266.422 232.102 266.622 232.195C269.021 233.588 271.42 234.982 273.718 236.561C273.818 236.654 273.918 236.654 274.018 236.747C274.318 236.932 274.618 237.211 274.918 237.397C275.518 237.768 276.017 238.14 276.617 238.604C279.116 240.369 281.315 242.227 283.414 243.992C283.514 244.084 283.613 244.177 283.713 244.27C283.913 244.456 284.213 244.735 284.413 244.92C285.113 245.571 285.712 246.128 286.312 246.778C286.612 247.057 286.812 247.335 287.112 247.521C288.311 248.729 289.61 250.772 291.01 253.28C291.11 253.466 291.21 253.745 291.31 253.93C291.41 254.116 291.51 254.209 291.51 254.395C292.409 256.16 293.409 258.203 294.308 260.525C294.308 260.525 294.308 260.618 294.408 260.618C294.808 261.454 295.108 262.29 295.508 263.219C296.307 265.262 297.207 267.492 298.006 269.814C298.106 269.999 298.206 270.278 298.206 270.464C299.006 272.6 299.805 274.737 300.505 277.059C300.805 277.895 301.105 278.824 301.405 279.659C301.604 280.31 301.904 280.96 302.104 281.61C302.604 283.096 303.104 284.675 303.603 286.254C303.703 286.44 303.803 286.719 303.803 286.905C304.503 289.041 305.203 291.27 305.902 293.499C306.202 294.335 306.502 295.264 306.702 296.193C307.402 298.329 308.001 300.559 308.701 302.788C308.801 302.974 308.801 303.252 308.901 303.438C309.001 303.717 309.101 303.995 309.101 304.274C309.7 306.225 310.3 308.082 310.8 310.033C311.1 310.962 311.3 311.798 311.599 312.727C311.699 313.191 311.799 313.563 311.999 313.934C312.499 315.699 313.099 317.464 313.598 319.229C313.698 319.414 313.698 319.693 313.798 319.879C314.498 322.108 315.098 324.244 315.697 326.474C315.997 327.402 316.197 328.238 316.497 329.167C317.097 331.396 317.796 333.626 318.396 335.762C318.496 335.948 318.496 336.227 318.596 336.412C318.796 337.155 318.996 337.898 319.196 338.549C319.395 339.385 319.695 340.128 319.895 340.871C320.095 341.614 320.295 342.264 320.495 342.914C320.795 343.843 320.995 344.679 321.294 345.608C321.994 347.93 322.594 350.066 323.194 352.203C323.293 352.389 323.293 352.667 323.393 352.853C324.093 355.175 324.693 357.404 325.292 359.448C325.392 359.819 325.492 360.098 325.592 360.47C325.792 361.027 325.892 361.584 326.092 362.141C326.492 363.535 326.792 365.114 327.192 366.693C327.391 367.343 327.491 368.086 327.591 368.736C327.591 368.922 327.691 369.201 327.691 369.387C328.091 371.523 328.391 373.659 328.691 375.981C328.791 376.817 328.891 377.746 328.991 378.675C329.29 380.811 329.49 382.948 329.69 385.27C329.69 385.456 329.79 385.734 329.79 385.92C329.89 387.128 329.99 388.242 330.09 389.45C330.19 390.471 330.29 391.493 330.29 392.515C330.39 393.444 330.39 394.28 330.49 395.209C330.59 397.345 330.69 399.574 330.69 401.803C330.69 401.989 330.69 402.268 330.69 402.454C330.79 404.59 330.79 406.819 330.89 409.048C329.39 409.977 329.49 410.906 329.49 411.742Z" fill="#32B768"/>
<g opacity="0.5">
<path opacity="0.5" d="M134.389 460.878V478.341H131.59V472.582C131.79 471.282 132.19 469.888 132.59 468.216C132.69 468.031 132.69 467.752 132.79 467.566C133.289 465.616 133.889 463.386 134.489 461.064C134.389 460.971 134.389 460.878 134.389 460.878Z" fill="#298A51"/>
<path opacity="0.5" d="M142.185 434.871V478.341H141.485V437.1C141.685 436.542 141.885 435.985 141.985 435.335C142.085 435.149 142.085 435.056 142.185 434.871Z" fill="#298A51"/>
<path opacity="0.5" d="M152.08 402.175V478.248H149.181V411.742C149.481 410.813 149.681 409.977 149.981 409.141C150.681 406.912 151.28 404.776 151.98 402.546C151.98 402.454 152.08 402.268 152.08 402.175Z" fill="#298A51"/>
<path opacity="0.5" d="M159.876 373.938V478.248H159.176V376.26H159.276C159.476 375.517 159.676 374.681 159.876 373.938Z" fill="#298A51"/>
<path opacity="0.5" d="M169.771 315.42V478.341H166.872V329.725H167.172C167.272 328.889 167.472 327.96 167.572 327.031C167.972 324.895 168.272 322.665 168.672 320.436C168.771 320.25 168.771 319.972 168.771 319.786C169.171 318.393 169.471 316.906 169.771 315.42Z" fill="#298A51"/>
<path opacity="0.5" d="M177.467 282.818V478.248H176.767V285.233C177.067 284.397 177.267 283.654 177.467 282.818Z" fill="#298A51"/>
<path opacity="0.5" d="M187.362 255.417V478.248H184.563V262.011C184.663 261.826 184.763 261.64 184.763 261.454C185.663 259.318 186.463 257.274 187.362 255.417Z" fill="#298A51"/>
<path opacity="0.5" d="M195.158 242.041V478.248H194.458V243.063C194.658 242.691 194.958 242.413 195.158 242.041Z" fill="#298A51"/>
<path opacity="0.5" d="M205.053 234.053V478.248H202.155V235.539C203.054 235.075 204.054 234.61 205.053 234.053Z" fill="#298A51"/>
<path opacity="0.5" d="M212.749 230.895V478.248H212.05V231.173C212.35 231.081 212.549 230.988 212.749 230.895Z" fill="#298A51"/>
<path opacity="0.5" d="M222.744 227.737V478.248H219.846V228.573C220.845 228.294 221.745 228.015 222.744 227.737Z" fill="#298A51"/>
<path opacity="0.5" d="M230.44 225.693V478.248H229.741V225.786C230.041 225.786 230.24 225.693 230.44 225.693Z" fill="#298A51"/>
<path opacity="0.5" d="M240.335 224.393V478.248H237.537V224.393C237.937 224.3 238.236 224.3 238.536 224.3C239.136 224.3 239.736 224.3 240.335 224.393Z" fill="#298A51"/>
<path opacity="0.5" d="M248.131 225.786V478.248H247.432V225.6C247.632 225.6 247.832 225.693 248.131 225.786Z" fill="#298A51"/>
<path opacity="0.5" d="M258.026 229.409V478.248H255.128V228.201C255.528 228.387 255.828 228.48 256.227 228.665C256.827 228.851 257.427 229.13 258.026 229.409Z" fill="#298A51"/>
<path opacity="0.5" d="M265.723 233.31V478.248H265.023V232.938C265.323 233.031 265.523 233.217 265.723 233.31Z" fill="#298A51"/>
<path opacity="0.5" d="M275.718 239.626V478.248H272.819V237.675C272.919 237.768 273.019 237.768 273.119 237.861C273.419 238.047 273.719 238.326 274.018 238.511C274.618 238.883 275.118 239.254 275.718 239.626Z" fill="#298A51"/>
<path opacity="0.5" d="M283.414 245.849V478.248H282.714V245.199C282.914 245.478 283.214 245.663 283.414 245.849Z" fill="#298A51"/>
<path opacity="0.5" d="M293.309 261.454V478.341H290.51V255.417C291.41 257.088 292.309 259.132 293.309 261.454Z" fill="#298A51"/>
<path opacity="0.5" d="M301.105 282.446V478.248H300.405V280.495C300.605 281.146 300.805 281.796 301.105 282.446Z" fill="#298A51"/>
<path opacity="0.5" d="M311 314.584V478.341H308.101V304.924C308.701 306.875 309.301 308.733 309.8 310.683C310.1 311.612 310.3 312.448 310.6 313.377C310.8 313.748 310.9 314.12 311 314.584Z" fill="#298A51"/>
<path opacity="0.5" d="M318.696 341.428V478.248H317.996V339.013C318.296 339.849 318.496 340.592 318.696 341.428Z" fill="#298A51"/>
<path opacity="0.5" d="M328.691 389.636V439.236C328.591 440.165 328.591 441.001 328.491 441.837C328.391 442.766 328.291 443.602 328.291 444.531C328.091 446.76 327.891 448.989 327.691 451.033C327.691 451.218 327.591 451.497 327.591 451.683C327.292 454.005 327.092 456.141 326.792 458.278C326.692 459.206 326.492 460.135 326.392 460.971C326.192 462.457 325.892 463.851 325.692 465.151V367.064C325.892 367.715 325.992 368.458 326.092 369.108C326.092 369.294 326.192 369.572 326.192 369.758C326.592 371.894 326.892 374.031 327.192 376.353C327.292 377.189 327.391 378.118 327.491 379.047C327.791 381.183 327.991 383.319 328.191 385.641C328.191 385.827 328.291 386.106 328.291 386.292C328.491 387.313 328.591 388.428 328.691 389.636Z" fill="#298A51"/>
</g>
<g opacity="0.5">
<path opacity="0.5" d="M258.026 229.409C259.326 230.059 260.725 230.616 262.024 231.266H211.85C211.95 231.173 212.05 231.173 212.15 231.173C212.349 231.081 212.649 230.988 212.849 230.895C215.148 230.059 217.447 229.316 219.846 228.573H256.327C256.827 228.851 257.427 229.13 258.026 229.409Z" fill="#298A51"/>
<path opacity="0.5" d="M274.018 238.512H198.357C198.556 238.233 198.756 238.047 199.056 237.861H273.219C273.419 238.047 273.718 238.233 274.018 238.512Z" fill="#298A51"/>
<path opacity="0.5" d="M283.414 245.849C284.113 246.499 284.713 247.057 285.313 247.707H191.36C191.96 246.778 192.459 245.849 193.059 245.013H282.414C282.514 245.106 282.614 245.199 282.714 245.292C282.914 245.478 283.214 245.663 283.414 245.849Z" fill="#298A51"/>
<path opacity="0.5" d="M289.91 254.209C290.01 254.395 290.11 254.674 290.21 254.86H187.662C187.762 254.674 187.862 254.395 187.962 254.209H289.91Z" fill="#298A51"/>
<path opacity="0.5" d="M294.408 264.055H183.764L184.563 261.918C184.663 261.733 184.763 261.547 184.763 261.361H293.309V261.454C293.708 262.383 294.008 263.219 294.408 264.055Z" fill="#298A51"/>
<path opacity="0.5" d="M297.207 271.301H181.065C181.165 271.115 181.165 270.836 181.265 270.65H296.907C297.007 270.836 297.107 271.115 297.207 271.301Z" fill="#298A51"/>
<path opacity="0.5" d="M300.405 280.495H178.167C178.467 279.567 178.766 278.731 178.966 277.802H299.506C299.805 278.731 300.105 279.567 300.405 280.495Z" fill="#298A51"/>
<path opacity="0.5" d="M302.804 287.648H176.168C176.268 287.462 176.268 287.183 176.368 286.997H302.604C302.604 287.276 302.704 287.462 302.804 287.648Z" fill="#298A51"/>
<path opacity="0.5" d="M305.702 296.936H173.769C173.969 296.007 174.169 295.171 174.469 294.242H304.903C305.103 295.078 305.403 296.007 305.702 296.936Z" fill="#298A51"/>
<path opacity="0.5" d="M307.901 304.089H172.07C172.07 303.903 172.17 303.624 172.17 303.438H307.601C307.801 303.717 307.801 303.903 307.901 304.089Z" fill="#298A51"/>
<path opacity="0.5" d="M310.7 313.284H170.171C170.371 312.355 170.571 311.519 170.77 310.59H309.9C310.1 311.519 310.4 312.448 310.7 313.284Z" fill="#298A51"/>
<path opacity="0.5" d="M312.699 320.53H168.771C168.871 320.344 168.871 320.065 168.871 319.879H312.499C312.599 320.065 312.699 320.251 312.699 320.53Z" fill="#298A51"/>
<path opacity="0.5" d="M315.398 329.725H167.172C167.272 328.889 167.472 327.96 167.572 327.031H314.598C314.898 327.96 315.098 328.796 315.398 329.725Z" fill="#298A51"/>
<path opacity="0.5" d="M317.396 336.878H166.173C166.173 336.692 166.273 336.413 166.273 336.227H317.297C317.297 336.506 317.396 336.692 317.396 336.878Z" fill="#298A51"/>
<path opacity="0.5" d="M320.095 346.165H164.973C165.073 345.329 165.173 344.4 165.273 343.472H319.296C319.495 344.4 319.795 345.236 320.095 346.165Z" fill="#298A51"/>
<path opacity="0.5" d="M322.094 353.318H164.074C164.174 353.132 164.174 352.853 164.174 352.667H321.894C321.994 352.853 321.994 353.132 322.094 353.318Z" fill="#298A51"/>
<path opacity="0.5" d="M324.693 362.513H162.475C162.675 361.584 162.874 360.748 162.974 359.819H323.993C324.093 360.191 324.193 360.47 324.293 360.841C324.393 361.398 324.593 361.956 324.693 362.513Z" fill="#298A51"/>
<path opacity="0.5" d="M326.292 369.759H160.875C160.975 369.573 160.975 369.294 161.075 369.108H326.292C326.192 369.294 326.292 369.48 326.292 369.759Z" fill="#298A51"/>
<path opacity="0.5" d="M327.691 378.954H158.577C158.776 378.211 158.976 377.468 159.176 376.632V376.26H327.391C327.491 377.189 327.591 378.025 327.691 378.954Z" fill="#298A51"/>
<path opacity="0.5" d="M328.391 386.107H156.678C156.778 385.921 156.778 385.642 156.877 385.456H328.391C328.391 385.735 328.391 385.921 328.391 386.107Z" fill="#298A51"/>
<path opacity="0.5" d="M328.991 395.301H154.079C154.379 394.373 154.579 393.537 154.878 392.608H328.891C328.891 393.537 328.991 394.465 328.991 395.301Z" fill="#298A51"/>
<path opacity="0.5" d="M329.291 402.547H151.98C151.98 402.454 152.08 402.268 152.08 402.175V401.896H329.291C329.291 402.082 329.291 402.361 329.291 402.547Z" fill="#298A51"/>
<path opacity="0.5" d="M329.49 411.742H149.281V411.649C149.581 410.72 149.781 409.884 150.081 409.048H329.49C329.39 409.977 329.49 410.906 329.49 411.742Z" fill="#298A51"/>
<path opacity="0.5" d="M329.39 418.337C329.39 418.523 329.39 418.802 329.39 418.988H146.982C147.082 418.802 147.182 418.523 147.182 418.337H329.39Z" fill="#298A51"/>
<path opacity="0.5" d="M329.291 425.489C329.291 426.418 329.191 427.254 329.191 428.183H144.184C144.484 427.254 144.784 426.418 144.983 425.489H329.291Z" fill="#298A51"/>
<path opacity="0.5" d="M328.891 434.685C328.891 434.871 328.891 435.15 328.891 435.336H141.985C142.085 435.15 142.085 434.964 142.185 434.778V434.685H328.891Z" fill="#298A51"/>
<path opacity="0.5" d="M328.491 441.93C328.391 442.859 328.291 443.695 328.291 444.623H139.186C139.486 443.695 139.686 442.859 139.986 441.93H328.491Z" fill="#298A51"/>
<path opacity="0.5" d="M327.691 451.125C327.691 451.311 327.591 451.59 327.591 451.776H137.087C137.187 451.59 137.187 451.311 137.287 451.125H327.691Z" fill="#298A51"/>
<path opacity="0.5" d="M326.892 458.278C326.792 459.206 326.592 460.135 326.492 460.971H134.389C134.389 460.878 134.389 460.878 134.489 460.785C134.689 459.95 134.988 459.114 135.188 458.278H326.892Z" fill="#298A51"/>
<path opacity="0.5" d="M325.393 467.566C325.293 467.752 325.293 468.031 325.293 468.217H132.49C132.59 468.031 132.59 467.752 132.69 467.566H325.393Z" fill="#298A51"/>
<path opacity="0.5" d="M323.493 474.718C323.094 475.833 322.594 476.762 322.194 477.412H131.09C130.99 476.762 130.99 475.926 131.19 474.718H323.493Z" fill="#298A51"/>
</g>
<path d="M318.896 342.543C316.197 333.254 313.398 323.873 310.6 314.584C310.2 308.547 309.201 302.602 308.401 296.657C308.401 296.379 307.901 296.379 307.901 296.657C308.401 300.837 308.601 305.017 308.901 309.104C306.302 300.652 303.603 292.199 300.805 283.746C300.705 283.375 300.105 283.561 300.205 283.932C305.003 302.974 310.2 322.015 315.697 340.871C321.195 360.005 327.192 379.047 329.39 398.738C329.49 399.388 330.49 399.388 330.49 398.738C330.19 379.604 324.293 361.027 318.896 342.543Z" fill="#298A51"/>
<path d="M227.142 220.492C220.545 222.442 209.851 229.78 209.051 232.845C208.252 235.818 209.651 250.029 211.45 251.422C213.149 252.816 233.739 272.322 254.228 272.322C256.127 272.322 258.926 255.045 259.726 253.744C260.525 252.444 271.72 265.541 272.919 264.426C274.018 263.405 276.017 246.871 275.018 242.784C274.018 238.697 259.925 226.808 253.729 223C247.532 219.191 233.139 218.727 227.142 220.492Z" fill="#298A51"/>
<path d="M258.626 190.397L263.024 228.294V228.387L263.624 233.681C263.624 233.681 269.521 247.243 257.627 251.051C237.337 257.553 218.546 240.09 216.647 237.397C215.648 236.096 212.749 222.721 210.051 209.996C207.552 197.828 205.253 186.217 205.253 186.217L211.25 186.681L258.626 190.397Z" fill="#EBADA0"/>
<path d="M258.626 190.398L263.024 228.295V228.388C249.331 228.481 235.538 225.137 223.444 218.913C218.546 216.406 214.149 213.433 210.051 210.089C207.552 197.921 205.253 186.311 205.253 186.311L211.25 186.775L258.626 190.398Z" fill="#C47C8A"/>
<path d="M258.926 117.575L277.716 149.806C277.716 149.806 282.714 110.516 258.926 117.575Z" fill="#2A443E"/>
<path d="M195.258 136.152C190.261 154.264 204.853 195.505 221.345 207.766C232.539 216.126 253.729 216.033 268.121 207.859C274.618 204.144 279.715 198.756 281.814 191.79C288.611 169.405 270.12 121.012 257.527 114.974C235.238 104.199 201.455 113.952 195.258 136.152Z" fill="#EBADA0"/>
<path d="M248.331 164.017C248.231 163.924 248.131 164.203 248.131 164.296C248.931 166.99 249.431 170.241 247.032 171.727C246.932 171.82 247.032 171.913 247.132 171.913C250.23 170.705 249.531 166.432 248.331 164.017Z" fill="#2A443E"/>
<path d="M244.933 161.788C240.135 162.531 242.134 171.448 246.532 170.705C250.93 170.055 248.931 161.138 244.933 161.788Z" fill="#2A443E"/>
<path d="M268.321 160.023C268.321 159.93 268.621 160.116 268.621 160.209C269.121 162.996 270.22 166.061 273.119 166.432C273.219 166.432 273.219 166.618 273.119 166.618C269.72 166.804 268.321 162.717 268.321 160.023Z" fill="#2A443E"/>
<path d="M270.32 156.679C275.018 155.379 277.417 164.203 273.019 165.411C268.721 166.525 266.422 157.701 270.32 156.679Z" fill="#2A443E"/>
<path d="M254.428 189.468C255.328 189.932 256.227 190.768 257.327 190.582C258.426 190.49 259.526 189.839 260.325 189.282C260.425 189.189 260.525 189.282 260.525 189.375C260.025 190.583 258.526 191.511 257.127 191.604C255.728 191.604 254.828 190.675 254.228 189.654C254.128 189.468 254.328 189.375 254.428 189.468Z" fill="#C47C8A"/>
<path d="M240.235 158.444C241.435 157.887 242.534 157.144 243.634 156.494C244.933 155.751 246.032 155.286 246.732 153.893C247.132 153.15 246.632 152.035 245.932 151.664C244.233 150.735 242.334 151.292 240.735 152.128C238.936 153.057 237.837 154.172 237.137 155.936C236.537 157.701 238.636 159.187 240.235 158.444Z" fill="#2A443E"/>
<path d="M273.019 151.478C271.62 151.571 270.42 151.385 269.021 151.292C267.522 151.199 266.222 151.292 264.923 150.363C264.223 149.899 264.123 148.691 264.523 148.041C265.523 146.462 267.422 146.183 269.321 146.183C271.32 146.183 272.919 146.741 274.418 147.948C275.917 149.063 274.818 151.385 273.019 151.478Z" fill="#2A443E"/>
<path d="M263.823 181.48C263.823 181.48 262.424 187.61 257.527 187.332C253.829 187.146 254.328 180.087 254.328 180.087C254.328 180.087 259.526 182.594 263.823 181.48Z" fill="white"/>
<path d="M254.128 180.365C256.327 182.409 259.026 183.245 261.824 183.245C263.024 183.245 264.323 183.059 265.523 182.687C265.722 182.594 266.022 182.594 266.222 182.502C266.422 182.409 266.622 182.409 266.822 182.316C267.122 182.223 267.322 181.944 267.322 181.573C267.322 181.48 267.322 181.387 267.222 181.294L267.122 181.015C266.722 178.879 265.722 175.721 265.722 175.721C266.622 175.907 271.32 176.928 271.02 175.814C268.421 166.711 265.423 156.679 260.725 148.227C260.625 147.948 260.125 148.134 260.225 148.413C262.424 157.237 266.222 165.596 268.521 174.421C267.022 174.235 264.623 173.77 263.424 173.956C263.124 174.142 265.323 180.087 265.423 181.015C265.423 181.015 265.423 181.015 265.423 181.108C261.724 182.316 258.526 181.758 254.328 180.087C254.028 179.994 253.828 180.179 254.128 180.365Z" fill="#C47C8A"/>
<path d="M207.252 178.415C218.246 177.672 212.349 157.701 212.349 157.701C212.349 157.701 229.241 156.215 225.143 132.251C225.143 132.251 246.732 136.523 259.925 129.929C273.119 123.334 269.92 100.391 265.922 99.3694C261.924 98.4405 253.329 106.336 253.329 106.336C253.329 106.336 254.428 97.3259 249.331 99.2765C244.233 101.134 241.035 105.964 241.035 105.964C241.035 105.964 199.456 109.587 192.16 118.504C186.662 125.191 189.061 134.108 189.061 134.108C189.061 134.108 178.966 139.496 180.465 147.67C181.865 155.844 194.358 179.251 207.252 178.415Z" fill="#2A443E"/>
<path d="M224.343 127.978C224.243 127.792 223.944 127.885 224.044 128.071C229.441 141.261 227.642 157.237 209.651 158.444C209.151 158.444 209.251 159.187 209.751 159.187C216.547 159.466 223.044 156.029 226.442 150.363C230.64 142.933 228.042 134.944 224.343 127.978Z" fill="#2A443E"/>
<path d="M266.122 100.298C266.022 100.298 266.022 100.391 266.022 100.391C270.42 103.363 270.42 112.188 269.92 116.832C269.321 122.591 266.122 127.699 260.925 130.672C251.829 135.873 239.036 134.016 229.141 131.972C228.541 131.879 228.841 132.437 229.441 132.622C241.135 135.595 259.626 137.731 267.422 126.678C270.52 122.219 271.52 116.46 271.12 111.259C270.92 107.636 270.12 101.97 266.122 100.298Z" fill="#2A443E"/>
<path d="M211.05 179.622C211.05 179.622 199.056 166.34 192.459 170.427C185.863 174.514 195.858 194.391 204.253 196.527C212.649 198.664 214.948 191.511 214.948 191.511L211.05 179.622Z" fill="#EBADA0"/>
<path d="M195.458 176.093C195.358 176.093 195.358 176.278 195.458 176.278C201.355 177.95 204.853 182.594 207.452 187.517C205.553 185.66 203.154 184.824 200.555 186.96C200.455 187.053 200.555 187.239 200.755 187.239C203.054 186.589 204.753 186.774 206.552 188.446C207.752 189.561 208.651 191.047 209.651 192.44C209.951 192.905 210.85 192.533 210.65 192.069C210.65 192.069 210.65 191.976 210.55 191.976C209.851 185.102 203.254 176.093 195.458 176.093Z" fill="#C47C8A"/>
<path d="M354.378 441.465C351.679 444.438 335.887 439.608 324.293 440.536C319.895 440.908 303.903 446.853 294.908 443.787C289.91 442.023 278.616 434.313 277.017 434.685C275.418 435.056 183.164 428.09 161.475 419.637C157.277 417.965 153.079 416.015 148.981 413.786C131.69 404.497 116.298 391.4 113.599 384.991C112.9 383.319 113.899 378.489 115.898 371.709C123.694 345.794 147.382 291.642 154.778 279.381C164.074 263.869 190.56 241.391 196.457 242.041C213.149 243.806 205.253 308.454 204.054 316.07C202.954 322.944 187.062 358.24 185.863 366.228C185.763 367.064 185.763 367.622 186.063 367.807C186.462 368.086 188.961 369.201 192.959 370.965C214.548 380.44 278.516 408.491 283.514 410.627C289.511 413.135 307.402 417.872 318.796 419.916C326.892 421.309 357.076 438.4 354.378 441.465Z" fill="#EBADA0"/>
<path d="M186.063 366.135C185.963 366.971 185.963 367.529 186.263 367.715C186.662 367.993 189.161 369.108 193.159 370.873C192.16 371.523 191.26 372.08 190.261 372.73C182.864 377.746 175.968 383.319 169.571 389.45C161.875 396.88 154.978 405.054 148.981 413.786C131.69 404.497 116.298 391.4 113.599 384.991C112.9 383.319 113.899 378.489 115.898 371.709C123.694 345.794 147.382 291.642 154.778 279.381C164.074 263.869 190.56 241.391 196.457 242.041C213.149 243.806 205.253 308.454 204.054 316.07C203.154 322.851 187.262 358.24 186.063 366.135Z" fill="#C47C8A"/>
<path d="M210.45 280.495C210.45 282.725 210.45 284.954 210.35 287.09C210.35 287.276 210.35 287.555 210.35 287.74C210.25 289.97 210.151 292.199 210.051 294.335C209.951 295.264 209.951 296.1 209.851 297.029C209.651 299.351 209.451 301.58 209.251 303.624C209.251 303.81 209.251 304.088 209.151 304.274C208.851 306.875 208.551 309.104 208.351 310.869C208.152 311.983 208.052 312.819 207.952 313.562C207.952 313.748 207.852 313.934 207.852 314.12C207.552 315.42 207.052 317.557 206.252 320.157C206.153 320.343 206.153 320.622 206.053 320.808C205.653 322.015 205.253 323.408 204.853 324.802C204.553 325.638 204.353 326.474 204.054 327.402C203.754 328.238 203.554 329.167 203.254 330.096C202.854 331.489 202.354 332.883 201.955 334.369C201.755 335.112 201.455 335.948 201.255 336.691C201.155 336.877 201.155 337.155 201.055 337.341C200.355 339.57 199.656 341.707 198.956 343.936C198.656 344.865 198.356 345.701 198.057 346.63C197.257 348.952 196.557 351.088 195.858 353.224C195.758 353.41 195.658 353.689 195.658 353.875C195.358 354.711 195.158 355.454 194.858 356.197C194.658 356.94 194.358 357.59 194.159 358.147C193.859 358.983 193.559 359.726 193.359 360.377C192.959 361.398 192.659 362.234 192.359 363.07C191.56 365.299 190.86 366.693 190.56 367.064C190.161 367.529 188.961 367.993 187.062 368.736C186.363 369.015 185.663 369.294 184.863 369.572C184.663 369.665 184.463 369.758 184.164 369.851C183.864 370.037 183.464 370.13 183.064 370.222C181.265 370.873 179.266 371.709 177.067 372.545C176.867 372.637 176.567 372.73 176.368 372.823C174.169 373.752 171.77 374.774 169.271 375.888C168.671 376.167 168.072 376.446 167.372 376.817C167.072 377.003 166.672 377.189 166.373 377.375C164.973 378.025 163.674 378.768 162.275 379.511C161.275 380.068 160.276 380.626 159.376 381.183C159.176 381.369 158.876 381.462 158.676 381.647C156.378 383.041 154.179 384.527 151.98 386.106C151.88 386.199 151.68 386.292 151.58 386.384C151.38 386.477 151.28 386.663 151.08 386.756C150.281 387.406 149.481 388.056 148.682 388.707C146.982 390.1 145.283 391.679 143.784 393.351C142.984 394.187 142.285 395.023 141.585 395.859C141.485 395.952 141.485 395.952 141.385 396.044C141.185 396.23 140.985 396.509 140.885 396.695C139.386 398.552 138.087 400.503 136.987 402.639C136.788 402.825 136.688 403.104 136.588 403.29C135.588 405.054 134.789 406.912 134.189 408.863C134.189 408.955 133.989 408.956 133.789 408.77C133.289 408.584 132.29 407.934 130.89 407.005C129.491 406.076 127.692 404.683 125.793 403.197C125.593 403.011 125.293 402.732 124.993 402.546C124.594 402.268 124.194 401.896 123.794 401.525C123.594 401.339 123.294 401.153 123.094 400.875C121.295 399.388 119.596 397.624 117.897 395.859C117.197 395.208 116.598 394.465 115.998 393.815C115.798 393.63 115.598 393.444 115.498 393.165C114.599 392.143 113.899 391.122 113.099 390.1C112.3 388.892 111.6 387.778 111.001 386.57C110.901 386.384 110.801 386.106 110.701 385.92C109.601 383.691 109.101 381.462 109.401 379.418V379.325C109.501 378.489 109.601 377.56 109.801 376.632C110.101 374.495 110.501 372.359 111.001 370.037C111.001 369.851 111.1 369.572 111.1 369.386C111.6 367.25 112.1 365.021 112.7 362.792C112.8 362.327 112.999 361.77 113.099 361.305C113.199 360.934 113.299 360.562 113.399 360.098C113.999 357.962 114.699 355.732 115.398 353.503C115.498 353.317 115.498 353.039 115.598 352.853C115.698 352.481 115.798 352.203 115.898 351.831C116.498 349.973 117.197 348.116 117.797 346.258L118.797 343.564C119.596 341.335 120.496 339.199 121.395 336.97C121.495 336.784 121.595 336.505 121.695 336.319C122.195 335.205 122.595 334.09 123.094 333.068C123.294 332.511 123.594 332.047 123.794 331.489C124.094 330.932 124.294 330.375 124.494 329.817C124.894 328.889 125.293 328.053 125.693 327.124C126.693 324.894 127.692 322.758 128.692 320.529C128.792 320.343 128.891 320.064 128.991 319.879C129.591 318.578 130.291 317.278 130.89 315.977C131.29 315.049 131.69 314.213 132.19 313.377C132.59 312.448 133.089 311.612 133.489 310.683C133.589 310.497 133.689 310.219 133.789 310.033C134.789 307.989 135.788 306.039 136.887 304.088C136.987 303.902 137.087 303.624 137.187 303.438C138.387 301.209 139.586 298.98 140.686 296.843C140.785 296.75 140.785 296.657 140.885 296.565C141.085 296.1 141.385 295.729 141.585 295.357C141.785 294.985 141.985 294.614 142.185 294.242C143.484 291.92 144.684 289.784 145.883 287.648C146.083 287.462 146.183 287.183 146.283 286.997C147.082 285.604 147.882 284.397 148.582 283.096C149.181 282.167 149.681 281.238 150.281 280.402C150.681 279.752 151.08 279.102 151.48 278.545C151.68 278.266 151.88 277.988 151.98 277.709C153.779 275.015 155.278 272.786 156.578 271.114C156.777 270.835 156.877 270.65 157.077 270.464C157.477 269.999 157.777 269.628 158.077 269.349C158.277 269.163 158.377 268.978 158.577 268.792C158.776 268.513 159.076 268.327 159.276 268.049C160.576 266.656 161.975 265.262 163.474 263.869C164.374 262.94 165.373 262.104 166.273 261.175L166.373 261.082C167.272 260.154 168.272 259.318 169.271 258.482C170.67 257.181 172.17 255.881 173.669 254.673C173.969 254.488 174.169 254.302 174.469 254.023C175.068 253.466 175.768 252.909 176.368 252.444C176.567 252.258 176.867 252.073 177.067 251.887C178.966 250.308 180.965 248.822 182.764 247.521C183.264 247.15 183.664 246.871 184.164 246.499C184.963 245.849 185.763 245.292 186.562 244.827C186.762 244.735 186.862 244.642 187.062 244.549C189.661 242.784 192.06 241.391 194.159 240.369C194.358 240.276 194.658 240.09 194.858 239.997C197.557 238.79 199.656 238.418 200.555 239.347C201.055 239.812 201.455 240.276 201.955 240.741C202.954 241.948 203.754 243.248 204.553 244.827C204.653 245.013 204.753 245.199 204.853 245.292C205.153 246.035 205.453 246.685 205.753 247.521C206.552 249.565 207.252 251.701 207.752 254.116C207.852 254.302 207.852 254.58 207.852 254.766C208.351 256.903 208.751 259.039 209.051 261.268C209.251 262.197 209.351 263.033 209.451 263.962C209.651 266.098 209.851 268.327 210.051 270.557C210.051 270.742 210.051 271.021 210.051 271.207C210.151 273.436 210.25 275.572 210.25 277.802C210.45 278.731 210.45 279.659 210.45 280.495Z" fill="#32B768"/>
<g opacity="0.5">
<path opacity="0.5" d="M116.798 351.645V393.258C116.598 393.072 116.398 392.886 116.298 392.608C115.398 391.586 114.699 390.564 113.899 389.543V359.819H114.199C114.799 357.683 115.498 355.454 116.198 353.225C116.298 353.039 116.298 352.76 116.398 352.574C116.498 352.296 116.698 352.017 116.798 351.645Z" fill="#298A51"/>
<path opacity="0.5" d="M124.494 331.396V400.875C124.294 400.689 123.994 400.503 123.794 400.224V332.883C124.094 332.511 124.294 331.954 124.494 331.396Z" fill="#298A51"/>
<path opacity="0.5" d="M134.389 310.033V408.12C133.889 407.934 132.889 407.284 131.49 406.355V315.885C131.89 314.956 132.29 314.12 132.79 313.284C133.189 312.355 133.689 311.519 134.089 310.59C134.189 310.404 134.289 310.219 134.389 310.033Z" fill="#298A51"/>
<path opacity="0.5" d="M142.185 295.357V395.301H141.985C141.785 395.487 141.585 395.766 141.485 395.952V296.564C141.685 296.193 141.985 295.729 142.185 295.357Z" fill="#298A51"/>
<path opacity="0.5" d="M152.08 278.638V385.827C151.88 385.92 151.78 386.106 151.58 386.199C150.78 386.849 149.981 387.499 149.181 388.149V283.189C149.781 282.26 150.281 281.331 150.88 280.495C151.28 279.845 151.68 279.195 152.08 278.638Z" fill="#298A51"/>
<path opacity="0.5" d="M159.876 268.327V380.626C159.676 380.811 159.376 380.904 159.176 381.09V269.071C159.376 268.792 159.576 268.513 159.876 268.327Z" fill="#298A51"/>
<path opacity="0.5" d="M169.771 258.667V375.331C169.171 375.61 168.571 375.888 167.872 376.26C167.572 376.446 167.172 376.631 166.872 376.817V261.361C167.772 260.432 168.771 259.596 169.771 258.667Z" fill="#298A51"/>
<path opacity="0.5" d="M177.467 252.073V372.08C177.267 372.173 176.967 372.266 176.767 372.359V252.63C177.067 252.444 177.267 252.258 177.467 252.073Z" fill="#298A51"/>
<path opacity="0.5" d="M187.362 244.735V368.272C186.662 368.55 185.963 368.829 185.163 369.108C184.963 369.201 184.763 369.294 184.464 369.386V246.685C185.263 246.035 186.063 245.478 186.862 245.013C187.062 244.92 187.262 244.828 187.362 244.735Z" fill="#298A51"/>
<path opacity="0.5" d="M195.158 240.183V355.639C194.958 356.383 194.658 357.033 194.458 357.59V240.555C194.658 240.462 194.958 240.276 195.158 240.183Z" fill="#298A51"/>
<path opacity="0.5" d="M205.053 245.014V324.524C204.753 325.36 204.553 326.196 204.253 327.125C203.954 327.961 203.754 328.89 203.454 329.818C203.054 331.212 202.554 332.605 202.155 334.091V240.927C203.154 242.135 203.954 243.435 204.753 245.014H205.053Z" fill="#298A51"/>
</g>
<g opacity="0.5">
<path opacity="0.5" d="M205.953 247.707H183.164C183.664 247.335 184.064 247.057 184.563 246.685C185.363 246.035 186.163 245.478 186.962 245.013H205.053V245.478C205.353 246.221 205.653 246.871 205.953 247.707Z" fill="#298A51"/>
<path opacity="0.5" d="M208.152 254.86H174.169C174.469 254.674 174.668 254.488 174.968 254.209H208.052C208.052 254.488 208.052 254.674 208.152 254.86Z" fill="#298A51"/>
<path opacity="0.5" d="M209.651 264.055H163.974C164.873 263.126 165.873 262.29 166.772 261.361H209.251C209.451 262.29 209.551 263.219 209.651 264.055Z" fill="#298A51"/>
<path opacity="0.5" d="M210.151 271.301H157.177C157.377 271.022 157.477 270.836 157.677 270.65H210.151C210.151 270.836 210.151 271.115 210.151 271.301Z" fill="#298A51"/>
<path opacity="0.5" d="M210.45 280.495H150.88C151.28 279.845 151.68 279.195 152.08 278.638C152.28 278.359 152.48 278.08 152.58 277.802H210.35C210.45 278.731 210.45 279.659 210.45 280.495Z" fill="#298A51"/>
<path opacity="0.5" d="M210.35 287.09C210.35 287.276 210.35 287.555 210.35 287.741H146.483C146.683 287.555 146.783 287.276 146.882 287.09H210.35Z" fill="#298A51"/>
<path opacity="0.5" d="M210.051 294.242C209.951 295.171 209.951 296.007 209.851 296.936H141.285C141.385 296.843 141.385 296.75 141.485 296.657C141.685 296.193 141.985 295.821 142.185 295.45V294.335H210.051V294.242Z" fill="#298A51"/>
<path opacity="0.5" d="M209.251 303.438C209.251 303.624 209.251 303.903 209.151 304.089H137.487C137.587 303.903 137.687 303.624 137.787 303.438H209.251Z" fill="#298A51"/>
<path opacity="0.5" d="M208.451 310.683C208.252 311.798 208.152 312.634 208.052 313.377H132.79C133.189 312.448 133.689 311.612 134.089 310.683H208.451Z" fill="#298A51"/>
<path opacity="0.5" d="M206.352 319.879C206.252 320.065 206.252 320.344 206.153 320.53H129.391C129.491 320.344 129.591 320.065 129.691 319.879H206.352Z" fill="#298A51"/>
<path opacity="0.5" d="M204.254 327.031C203.954 327.867 203.754 328.796 203.454 329.725H125.293C125.693 328.796 126.093 327.96 126.493 327.031H204.254Z" fill="#298A51"/>
<path opacity="0.5" d="M201.455 336.319C201.355 336.505 201.355 336.784 201.255 336.97H122.195C122.295 336.784 122.395 336.505 122.495 336.319H201.455Z" fill="#298A51"/>
<path opacity="0.5" d="M199.256 343.471C198.956 344.4 198.656 345.236 198.357 346.165H118.697L119.696 343.471H199.256Z" fill="#298A51"/>
<path opacity="0.5" d="M196.158 352.667C196.058 352.853 195.958 353.132 195.958 353.318H116.198C116.298 353.132 116.298 352.853 116.398 352.667H196.158Z" fill="#298A51"/>
<path opacity="0.5" d="M193.659 359.912C193.259 360.934 192.959 361.77 192.659 362.606H113.499C113.599 362.141 113.799 361.584 113.899 361.12V359.912H193.659Z" fill="#298A51"/>
<path opacity="0.5" d="M185.163 369.108C184.963 369.201 184.763 369.294 184.463 369.387C184.164 369.573 183.764 369.666 183.364 369.759H111.8C111.8 369.573 111.9 369.294 111.9 369.108H185.163Z" fill="#298A51"/>
<path opacity="0.5" d="M167.872 376.26C167.572 376.446 167.172 376.631 166.872 376.817C165.473 377.467 164.174 378.211 162.774 378.954H110.201C110.301 378.118 110.401 377.189 110.601 376.26H167.872Z" fill="#298A51"/>
<path opacity="0.5" d="M152.48 385.456C152.38 385.549 152.18 385.642 152.08 385.735C151.88 385.828 151.78 386.014 151.58 386.107H111.8C111.7 385.921 111.6 385.642 111.5 385.456H152.48Z" fill="#298A51"/>
<path opacity="0.5" d="M144.384 392.701C143.584 393.537 142.884 394.373 142.185 395.209V395.394H118.597C117.897 394.744 117.297 394.001 116.698 393.351C116.498 393.165 116.298 392.979 116.198 392.701H144.384Z" fill="#298A51"/>
<path opacity="0.5" d="M137.587 401.896C137.387 402.082 137.287 402.361 137.187 402.547H126.393C126.193 402.361 125.893 402.082 125.593 401.896H137.587Z" fill="#298A51"/>
</g>
<path d="M205.953 326.845C204.154 329.353 202.155 332.047 200.455 334.833C202.854 327.217 205.353 319.693 208.351 312.355C208.551 311.891 207.752 311.705 207.652 312.169C200.256 329.91 192.759 347.466 188.661 366.135C188.362 367.436 190.461 368.086 190.86 366.693C193.459 358.519 195.758 350.252 198.257 341.985C199.256 340.035 200.056 338.084 201.055 336.226C202.754 333.161 204.653 330.189 206.652 327.217C206.952 326.845 206.253 326.474 205.953 326.845Z" fill="#298A51"/>
<path d="M196.357 241.019C196.058 240.833 195.758 241.205 196.058 241.391C208.052 249.843 209.451 269.349 209.851 275.108C210.45 286.347 209.551 295.914 207.652 306.875C207.552 307.432 208.451 307.711 208.651 307.153C212.749 292.57 214.648 251.701 196.357 241.019Z" fill="#298A51"/>
<path d="M106.003 382.483C105.703 386.57 127.692 414.529 136.488 411.742C140.286 410.535 150.481 391.029 160.276 383.784C170.071 376.631 190.96 368.179 193.059 367.436C195.158 366.693 200.156 348.952 198.456 347.837C196.857 346.723 161.475 349.788 147.282 355.825C133.189 361.863 106.403 377.189 106.003 382.483Z" fill="#298A51"/>
<path d="M328.291 423.074C353.878 430.133 350.88 452.426 348.881 458.835C346.882 465.244 336.287 485.493 310.7 478.434C285.113 471.374 290.71 447.503 292.009 443.23C293.508 438.493 302.604 416.108 328.291 423.074Z" fill="#CE4D35"/>
<path d="M295.507 445.274C295.507 445.274 305.103 446.203 299.605 461.9C299.605 461.9 287.312 451.497 295.507 445.274Z" fill="#298A51"/>
<path d="M299.505 446.76C299.505 446.76 300.105 454.098 285.612 452.147C285.612 452.24 293.009 441.465 299.505 446.76Z" fill="#298A51"/>
<path d="M297.007 446.203C297.007 446.203 304.403 443.602 296.307 432.27C296.307 432.27 289.011 443.044 297.007 446.203Z" fill="#298A51"/>
<path d="M295.108 445.738C295.108 445.738 301.305 438.772 312.199 451.869C312.199 451.869 296.007 455.491 295.108 445.738Z" fill="#298A51"/>
<path d="M296.507 444.995C296.507 444.995 293.409 435.149 311.599 436.264C311.599 436.264 306.102 451.497 296.507 444.995Z" fill="#298A51"/>
<path d="M298.706 446.667C298.706 446.667 289.111 448.06 282.414 440.629C282.414 440.629 282.514 436.45 287.112 435.335C287.112 435.335 292.309 443.695 300.605 444.252L299.306 446.203" fill="#298A51"/>
<path d="M392.159 459.485C384.363 483.264 360.275 480.199 353.478 478.248C346.582 476.297 324.893 466.266 332.789 442.58C340.685 418.801 366.272 424.282 370.869 425.582C375.967 427.068 399.955 435.707 392.159 459.485Z" fill="#CE4D35"/>
<path d="M368.571 428.833C368.571 428.833 367.471 437.75 350.68 432.456C350.68 432.456 362.074 421.124 368.571 428.833Z" fill="#298A51"/>
<path d="M366.971 432.548C366.971 432.548 359.075 433.013 361.274 419.637C361.274 419.545 372.769 426.511 366.971 432.548Z" fill="#298A51"/>
<path d="M367.571 430.133C367.571 430.133 370.37 437.1 382.564 429.669C382.664 429.669 371.169 422.795 367.571 430.133Z" fill="#298A51"/>
<path d="M368.171 428.369C368.171 428.369 375.567 434.22 361.374 444.159C361.374 444.252 357.676 429.112 368.171 428.369Z" fill="#298A51"/>
<path d="M368.87 429.669C368.87 429.669 379.565 426.882 378.166 443.788C378.166 443.788 361.874 438.586 368.87 429.669Z" fill="#298A51"/>
<path d="M367.171 431.805C367.171 431.805 365.772 422.888 373.768 416.665C373.768 416.665 378.266 416.758 379.365 421.124C379.365 421.124 370.27 425.861 369.67 433.57L367.571 432.363" fill="#298A51"/>
<path d="M429.44 480.57L437.736 466.916H572.168L580.564 480.57" stroke="#2A443E" stroke-width="2" stroke-miterlimit="10"/>
<path d="M453.328 480.57L459.025 466.916H550.879L556.576 480.57" stroke="#2A443E" stroke-width="2" stroke-miterlimit="10"/>
<path d="M604.552 478.248H121.195V492.831H604.552V478.248Z" fill="#CA906A"/>
<path d="M292.609 431.898H258.826V478.341H292.609V431.898Z" fill="#ACB9A2"/>
<path d="M296.407 425.954H255.028V435.149H296.407V425.954Z" fill="#CE4D35"/>
<path d="M255.827 411.464C255.827 411.464 246.732 478.248 234.938 478.248C223.144 478.248 203.654 478.248 203.654 478.248C203.654 478.248 184.164 478.248 172.37 478.248C160.576 478.248 151.48 411.464 151.48 411.464H255.827Z" fill="#F0E4D6"/>
</g>
<defs>
<filter id="filter0_i" x="106" y="99" width="546.071" height="396.831" filterUnits="userSpaceOnUse" color-interpolation-filters="sRGB">
<feFlood flood-opacity="0" result="BackgroundImageFix"/>
<feBlend mode="normal" in="SourceGraphic" in2="BackgroundImageFix" result="shape"/>
<feColorMatrix in="SourceAlpha" type="matrix" values="0 0 0 0 0 0 0 0 0 0 0 0 0 0 0 0 0 0 127 0" result="hardAlpha"/>
<feOffset dy="3"/>
<feGaussianBlur stdDeviation="4"/>
<feComposite in2="hardAlpha" operator="arithmetic" k2="-1" k3="1"/>
<feColorMatrix type="matrix" values="0 0 0 0 0 0 0 0 0 0 0 0 0 0 0 0 0 0 0.25 0"/>
<feBlend mode="normal" in2="shape" result="effect1_innerShadow"/>
</filter>
</defs>
</svg>
